G04 Generated by Ultiboard 14.0 *
%FSLAX24Y24*%
%MOIN*%

%ADD10C,0.0001*%
%ADD11C,0.0125*%
%ADD12R,0.0118X0.0551*%
%ADD13C,0.0750*%
%ADD14R,0.0400X0.0400*%
%ADD15C,0.0350*%


G04 ColorRGB 00FF00 for the following layer *
%LNCopper Top*%
%LPD*%
G54D10*
G54D11*
X5409Y35150D02*
X5059Y34800D01*
X7609Y36250D02*
X8059Y35800D01*
X6099Y32800D02*
X5059Y32800D01*
X6214Y33800D02*
X5059Y33800D01*
X7299Y36800D02*
X8059Y36800D01*
X5609Y36350D02*
X5059Y35800D01*
X7859Y33600D02*
X8059Y33800D01*
X7199Y32800D02*
X8059Y32800D01*
X6399Y36800D02*
X5059Y36800D01*
X7300Y34800D02*
X8059Y34800D01*
X7249Y34800D02*
X7300Y34800D01*
X7249Y34800D02*
X7149Y34700D01*
X6749Y36450D02*
X6399Y36800D01*
X6749Y35800D02*
X6749Y36450D01*
X6514Y36350D02*
X5609Y36350D01*
X6549Y35800D02*
X6549Y36315D01*
X6514Y36350D02*
X6549Y36315D01*
X6034Y35150D02*
X5409Y35150D01*
X6034Y35150D02*
X6349Y35464D01*
X6349Y35800D02*
X6349Y35464D01*
X6949Y36450D02*
X7299Y36800D01*
X6949Y35800D02*
X6949Y36450D01*
X7264Y36250D02*
X7609Y36250D01*
X7149Y36136D02*
X7264Y36250D01*
X7149Y35800D02*
X7149Y36136D01*
X7149Y34200D02*
X7149Y34700D01*
X7099Y33600D02*
X7859Y33600D01*
X6949Y33750D02*
X7099Y33600D01*
X6949Y34200D02*
X6949Y33750D01*
X6749Y33250D02*
X7199Y32800D01*
X6749Y34200D02*
X6749Y33250D01*
X6349Y33935D02*
X6214Y33800D01*
X6349Y34200D02*
X6349Y33935D01*
X6549Y33250D02*
X6099Y32800D01*
X6549Y34200D02*
X6549Y33250D01*
G54D12*
X6349Y34200D03*
X7149Y34200D03*
X6749Y34200D03*
X6549Y34200D03*
X6949Y34200D03*
X6349Y35800D03*
X7149Y35800D03*
X6949Y35800D03*
X6749Y35800D03*
X6549Y35800D03*
G54D13*
X5059Y35800D03*
X5059Y34800D03*
X5059Y33800D03*
X8059Y36800D03*
X8059Y34800D03*
X8059Y35800D03*
X8059Y33800D03*
X5059Y32800D03*
X8059Y32800D03*
G54D14*
X5059Y36800D03*
G54D15*
X4859Y36600D02*
X5259Y36600D01*
X5259Y37000D01*
X4859Y37000D01*
X4859Y36600D01*D02*

M02*
