M48
METRIC,TZ
VER,1
FMAT,2
DETECT,ON
ATC,ON
T1C1.0000
%
T1
X421640Y518160
Y469477
X704040Y660400
X574040
X345440Y663400
Y533400
X455120Y787400
X325120
X370840Y457200
X345440
X370840Y497840
X345440
X467360Y914400
Y889000
X441960Y914400
Y889000
X543560Y914400
Y889000
X518160Y914400
Y889000
X492760Y914400
Y889000
X594360Y914400
Y889000
X568960Y914400
Y889000
X640080Y716280
X665480
X614680
X645160Y508000
X619760
X645160Y558800
X619760
X645160Y533400
X619760
Y457200
X645160
Y482600
X619760
X538480Y507840
Y660240
Y736440
Y787240
Y761840
Y711040
Y685640
Y584040
Y634840
Y609440
Y533240
Y558640
Y457040
Y482440
X487680Y507840
Y660240
Y736440
Y787240
Y761840
Y711040
Y685640
Y584040
Y634840
Y609440
Y533240
Y558640
Y457040
Y482440
X411480Y660400
X436880
X386080
X563880Y482600
X594360Y866140
X563880Y457200
X568960Y937260
Y866140
X563880Y609600
Y533400
X675640
X563880Y558800
X670560Y457200
X462280Y635000
X325120Y810260
X281940Y688340
X513080Y584200
M30
