G04 Generated by Ultiboard 14.0 *
%FSLAX34Y34*%
%MOMM*%

%ADD10C,0.0001*%
%ADD11C,1.0000*%


G04 ColorRGB 000000 for the following layer *
%LNDrill-Copper Top-Copper Bottom*%
%LPD*%
G54D11*
X421640Y518160D03*
X421640Y469477D03*
X704040Y660400D03*
X574040Y660400D03*
X345440Y663400D03*
X345440Y533400D03*
X455120Y787400D03*
X325120Y787400D03*
X370840Y457200D03*
X345440Y457200D03*
X370840Y497840D03*
X345440Y497840D03*
X467360Y914400D03*
X467360Y889000D03*
X441960Y914400D03*
X441960Y889000D03*
X543560Y914400D03*
X543560Y889000D03*
X518160Y914400D03*
X518160Y889000D03*
X492760Y914400D03*
X492760Y889000D03*
X594360Y914400D03*
X594360Y889000D03*
X568960Y914400D03*
X568960Y889000D03*
X640080Y716280D03*
X665480Y716280D03*
X614680Y716280D03*
X645160Y508000D03*
X619760Y508000D03*
X645160Y558800D03*
X619760Y558800D03*
X645160Y533400D03*
X619760Y533400D03*
X619760Y457200D03*
X645160Y457200D03*
X645160Y482600D03*
X619760Y482600D03*
X538480Y507840D03*
X538480Y660240D03*
X538480Y736440D03*
X538480Y787240D03*
X538480Y761840D03*
X538480Y711040D03*
X538480Y685640D03*
X538480Y584040D03*
X538480Y634840D03*
X538480Y609440D03*
X538480Y533240D03*
X538480Y558640D03*
X538480Y457040D03*
X538480Y482440D03*
X487680Y507840D03*
X487680Y660240D03*
X487680Y736440D03*
X487680Y787240D03*
X487680Y761840D03*
X487680Y711040D03*
X487680Y685640D03*
X487680Y584040D03*
X487680Y634840D03*
X487680Y609440D03*
X487680Y533240D03*
X487680Y558640D03*
X487680Y457040D03*
X487680Y482440D03*
X411480Y660400D03*
X436880Y660400D03*
X386080Y660400D03*
X563880Y482600D03*
X594360Y866140D03*
X563880Y457200D03*
X568960Y937260D03*
X568960Y866140D03*
X563880Y609600D03*
X563880Y533400D03*
X675640Y533400D03*
X563880Y558800D03*
X670560Y457200D03*
X462280Y635000D03*
X325120Y810260D03*
X281940Y688340D03*
X513080Y584200D03*

M02*
