G04 Generated by Ultiboard 14.0 *
%FSLAX34Y34*%
%MOMM*%

%ADD10C,0.0001*%
%ADD11C,0.2540*%
%ADD12C,0.5000*%
%ADD13C,2.0000*%
%ADD14R,2.0000X2.0000*%
%ADD15R,1.0051X1.0051*%
%ADD16C,0.9949*%


G04 ColorRGB 00FF00 for the following layer *
%LNCopper Top*%
%LPD*%
G54D10*
G36*
X690003Y407797D02*
X690003Y407797D01*
X735386Y453180D01*
X735386Y371971D01*
X232360Y371971D01*
X232360Y993700D01*
X735386Y993700D01*
X735386Y752817D01*
X623492Y864710D01*
X623492Y924560D01*
G74*
D01*
G03X620903Y930799I8812J0*
G01*
X620903Y930799D01*
X608219Y943483D01*
G74*
D01*
G03X601980Y946072I6239J6222*
G01*
X601980Y946072D01*
X582637Y946072D01*
G75*
D01*
G03X557381Y925830I-13671J-8820*
G01*
G74*
D01*
G03X556260Y924570I11579J11430*
G01*
G75*
D01*
G03X530860Y924570I-12700J-10170*
G01*
G75*
D01*
G03X505460Y924570I-12700J-10170*
G01*
G75*
D01*
G03X480060Y924570I-12700J-10170*
G01*
G75*
D01*
G03X454660Y924570I-12700J-10170*
G01*
G75*
D01*
G03X430233Y903122I-12698J-10172*
G01*
G74*
D01*
G03X425636Y894025I6702J9097*
G01*
X425636Y894025D01*
X425636Y883975D01*
G75*
D01*
G03X436935Y872676I11299J0*
G01*
X436935Y872676D01*
X446985Y872676D01*
G74*
D01*
G03X456082Y877273I0J11299*
G01*
G75*
D01*
G03X480060Y878830I11278J11727*
G01*
G75*
D01*
G03X505460Y878830I12700J10170*
G01*
G75*
D01*
G03X530860Y878830I12700J10170*
G01*
G75*
D01*
G03X556260Y878830I12700J10170*
G01*
G74*
D01*
G03X557381Y877570I12700J10170*
G01*
G75*
D01*
G03X553233Y861974I11579J-11429*
G01*
G75*
D01*
G03X552528Y858509I8107J-3454*
G01*
X552528Y858509D01*
X552528Y799067D01*
G74*
D01*
G03X543505Y803564I9022J6802*
G01*
X543505Y803564D01*
X533455Y803564D01*
G75*
D01*
G03X522156Y792265I0J-11299*
G01*
X522156Y792265D01*
X522156Y782215D01*
G75*
D01*
G03X526753Y773118I11299J0*
G01*
G75*
D01*
G03X528310Y749140I11727J-11278*
G01*
G75*
D01*
G03X528310Y723740I10170J-12700*
G01*
G75*
D01*
G03X528310Y698340I10170J-12700*
G01*
G75*
D01*
G03X528310Y672940I10170J-12700*
G01*
G75*
D01*
G03X528310Y647540I10170J-12700*
G01*
G74*
D01*
G03X523267Y640610I10169J12700*
G01*
X523267Y640610D01*
X532711Y640610D01*
X532711Y645027D01*
G75*
D01*
G03X544250Y645027I5770J15213*
G01*
X544250Y645027D01*
X544250Y640610D01*
X553693Y640610D01*
G74*
D01*
G03X548650Y647540I15212J5770*
G01*
G75*
D01*
G03X548650Y672940I-10170J12700*
G01*
G75*
D01*
G03X548650Y698340I-10170J12700*
G01*
G74*
D01*
G03X552915Y703534I10170J12699*
G01*
G74*
D01*
G03X555109Y699889I8424J2587*
G01*
X555109Y699889D01*
X578297Y676700D01*
X564040Y676700D01*
G75*
D01*
G03X557740Y670400I0J-6300*
G01*
X557740Y670400D01*
X557740Y650400D01*
G75*
D01*
G03X564040Y644100I6300J0*
G01*
X564040Y644100D01*
X584040Y644100D01*
G75*
D01*
G03X590340Y650400I0J6300*
G01*
X590340Y650400D01*
X590340Y664657D01*
X590628Y664370D01*
X590628Y621614D01*
X587426Y618412D01*
X577557Y618412D01*
G75*
D01*
G03X551116Y619689I-13677J-8810*
G01*
G74*
D01*
G03X548650Y622140I12636J10247*
G01*
G74*
D01*
G03X553693Y629071I10170J12700*
G01*
X553693Y629071D01*
X544250Y629071D01*
X544250Y624653D01*
G75*
D01*
G03X532711Y624653I-5769J-15213*
G01*
X532711Y624653D01*
X532711Y629071D01*
X523267Y629071D01*
G74*
D01*
G03X528310Y622140I15213J5769*
G01*
G75*
D01*
G03X528310Y596740I10170J-12700*
G01*
G74*
D01*
G03X525844Y594289I10171J12699*
G01*
G75*
D01*
G03X500316Y594289I-12764J-10088*
G01*
G74*
D01*
G03X497850Y596740I12636J10247*
G01*
G74*
D01*
G03X502893Y603671I10170J12700*
G01*
X502893Y603671D01*
X493450Y603671D01*
X493450Y599253D01*
G75*
D01*
G03X481911Y599253I-5769J-15213*
G01*
X481911Y599253D01*
X481911Y603671D01*
X472467Y603671D01*
G74*
D01*
G03X477510Y596740I15213J5769*
G01*
G75*
D01*
G03X477510Y571340I10170J-12700*
G01*
G75*
D01*
G03X477510Y545940I10170J-12700*
G01*
G75*
D01*
G03X477510Y520540I10170J-12700*
G01*
G75*
D01*
G03X477510Y495140I10170J-12700*
G01*
G75*
D01*
G03X477510Y469740I10170J-12700*
G01*
G75*
D01*
G03X497850Y469740I10170J-12700*
G01*
G75*
D01*
G03X497850Y495140I-10170J12700*
G01*
G75*
D01*
G03X497850Y520540I-10170J12700*
G01*
G75*
D01*
G03X497850Y545940I-10170J12700*
G01*
G75*
D01*
G03X497850Y571340I-10170J12700*
G01*
G74*
D01*
G03X500444Y573951I10171J12699*
G01*
G74*
D01*
G03X504268Y570523I12635J10248*
G01*
X504268Y570523D01*
X504268Y422832D01*
X349090Y422832D01*
X290752Y481170D01*
X290752Y674663D01*
G75*
D01*
G03X290752Y702017I-8810J13677*
G01*
X290752Y702017D01*
X290752Y781210D01*
X309262Y799720D01*
G74*
D01*
G03X308820Y797400I5858J2318*
G01*
X308820Y797400D01*
X308820Y777400D01*
G75*
D01*
G03X315120Y771100I6300J0*
G01*
X315120Y771100D01*
X335120Y771100D01*
G75*
D01*
G03X341420Y777400I0J6300*
G01*
X341420Y777400D01*
X341420Y797400D01*
G74*
D01*
G03X339948Y801448I6300J1*
G01*
X339948Y801448D01*
X384970Y801448D01*
X453468Y732950D01*
X453468Y648677D01*
G75*
D01*
G03X474916Y624751I8816J-13673*
G01*
G74*
D01*
G03X477510Y622140I12764J10087*
G01*
G74*
D01*
G03X472467Y615210I10169J12700*
G01*
X472467Y615210D01*
X481911Y615210D01*
X481911Y619627D01*
G75*
D01*
G03X493450Y619627I5770J15213*
G01*
X493450Y619627D01*
X493450Y615210D01*
X502893Y615210D01*
G74*
D01*
G03X497850Y622140I15212J5770*
G01*
G75*
D01*
G03X497850Y647540I-10170J12700*
G01*
G75*
D01*
G03X497850Y672940I-10170J12700*
G01*
G75*
D01*
G03X497850Y698340I-10170J12700*
G01*
G75*
D01*
G03X497850Y723740I-10170J12700*
G01*
G75*
D01*
G03X497850Y749140I-10170J12700*
G01*
G75*
D01*
G03X499407Y773118I-10170J12700*
G01*
G75*
D01*
G03X504004Y782215I-6702J9097*
G01*
X504004Y782215D01*
X504004Y792265D01*
G74*
D01*
G03X492705Y803564I11299J0*
G01*
X492705Y803564D01*
X482655Y803564D01*
G75*
D01*
G03X471356Y792265I0J-11299*
G01*
X471356Y792265D01*
X471356Y788457D01*
G75*
D01*
G03X471356Y786343I-16236J-1057*
G01*
X471356Y786343D01*
X471356Y782215D01*
G75*
D01*
G03X475953Y773118I11299J0*
G01*
G75*
D01*
G03X477510Y749140I11727J-11278*
G01*
G75*
D01*
G03X477510Y723740I10170J-12700*
G01*
G75*
D01*
G03X477510Y698340I10170J-12700*
G01*
G75*
D01*
G03X477510Y672940I10170J-12700*
G01*
G75*
D01*
G03X477510Y647540I10170J-12700*
G01*
G74*
D01*
G03X475044Y645089I10171J12699*
G01*
G74*
D01*
G03X471092Y648677I12764J10088*
G01*
X471092Y648677D01*
X471092Y736600D01*
G74*
D01*
G03X468503Y742839I8812J0*
G01*
X468503Y742839D01*
X459759Y751584D01*
X459759Y751584D01*
X394859Y816483D01*
G74*
D01*
G03X388620Y819072I6239J6222*
G01*
X388620Y819072D01*
X338797Y819072D01*
G75*
D01*
G03X311443Y819072I-13677J-8810*
G01*
X311443Y819072D01*
X307340Y819072D01*
G75*
D01*
G03X306145Y818991I-3J-8812*
G01*
G74*
D01*
G03X301109Y816491I1196J8731*
G01*
X301109Y816491D01*
X275709Y791091D01*
G75*
D01*
G03X273128Y784843I6230J-6231*
G01*
X273128Y784843D01*
X273128Y702017D01*
G75*
D01*
G03X273128Y674663I8810J-13677*
G01*
X273128Y674663D01*
X273128Y477537D01*
G75*
D01*
G03X275709Y471289I8812J-17*
G01*
X275709Y471289D01*
X339209Y407789D01*
G74*
D01*
G03X345079Y405215I6231J6230*
G01*
G75*
D01*
G03X345440Y405208I351J8805*
G01*
X345440Y405208D01*
X510530Y405208D01*
G75*
D01*
G03X513691Y405790I12J8812*
G01*
G74*
D01*
G03X516779Y407797I3152J8229*
G01*
X516779Y407797D01*
X519303Y410321D01*
G75*
D01*
G03X521892Y416560I-6222J6239*
G01*
X521892Y416560D01*
X521892Y570523D01*
G74*
D01*
G03X525716Y573951I8811J13676*
G01*
G74*
D01*
G03X528310Y571340I12764J10087*
G01*
G75*
D01*
G03X528310Y545940I10170J-12700*
G01*
G75*
D01*
G03X528310Y520540I10170J-12700*
G01*
G75*
D01*
G03X528310Y495140I10170J-12700*
G01*
G75*
D01*
G03X528310Y469740I10170J-12700*
G01*
G75*
D01*
G03X551244Y446951I10170J-12700*
G01*
G75*
D01*
G03X571085Y442612I12636J10248*
G01*
X571085Y442612D01*
X605909Y407789D01*
G74*
D01*
G03X611662Y405221I6231J6230*
G01*
G75*
D01*
G03X612140Y405208I478J8798*
G01*
X612140Y405208D01*
X683755Y405208D01*
G75*
D01*
G03X686392Y405608I12J8812*
G01*
G74*
D01*
G03X690003Y407797I2630J8411*
G01*
D02*
G37*
%LPC*%
G36*
X353566Y549700D02*
X353566Y549700D01*
X337314Y549700D01*
X345440Y541574D01*
X353566Y549700D01*
D02*
G37*
G36*
X339671Y441987D02*
X339671Y441987D01*
X339671Y451431D01*
X330227Y451431D01*
G74*
D01*
G03X339671Y441987I15213J5769*
G01*
D02*
G37*
G36*
X354540Y462970D02*
G74*
D01*
G03X354516Y462225I11275J736*
G01*
X354516Y462225D01*
X354516Y452175D01*
G75*
D01*
G03X354540Y451431I11299J-8*
G01*
X354540Y451431D01*
X351210Y451431D01*
X351210Y441987D01*
G74*
D01*
G03X356718Y445473I5771J15212*
G01*
G75*
D01*
G03X365815Y440876I9097J6702*
G01*
X365815Y440876D01*
X375865Y440876D01*
G75*
D01*
G03X387164Y452175I0J11299*
G01*
X387164Y452175D01*
X387164Y462225D01*
G74*
D01*
G03X375865Y473524I11299J0*
G01*
X375865Y473524D01*
X365815Y473524D01*
G75*
D01*
G03X356718Y468927I0J-11299*
G01*
G74*
D01*
G03X351210Y472413I11279J11726*
G01*
X351210Y472413D01*
X351210Y462970D01*
X354540Y462970D01*
D02*
G37*
G36*
X340440Y457200D02*
G75*
D01*
G03X340440Y457200I5000J0*
G01*
D02*
G37*
G36*
X405370Y469477D02*
G75*
D01*
G03X405370Y469477I16270J0*
G01*
D02*
G37*
G36*
X330227Y462970D02*
X330227Y462970D01*
X339671Y462970D01*
X339671Y472413D01*
G74*
D01*
G03X330227Y462970I5768J15213*
G01*
D02*
G37*
G36*
X339671Y482627D02*
X339671Y482627D01*
X339671Y492071D01*
X330227Y492071D01*
G74*
D01*
G03X339671Y482627I15213J5769*
G01*
D02*
G37*
G36*
X354540Y503610D02*
G74*
D01*
G03X354516Y502865I11275J736*
G01*
X354516Y502865D01*
X354516Y492815D01*
G75*
D01*
G03X354540Y492071I11299J-8*
G01*
X354540Y492071D01*
X351210Y492071D01*
X351210Y482627D01*
G74*
D01*
G03X356718Y486113I5771J15212*
G01*
G75*
D01*
G03X365815Y481516I9097J6702*
G01*
X365815Y481516D01*
X375865Y481516D01*
G75*
D01*
G03X387164Y492815I0J11299*
G01*
X387164Y492815D01*
X387164Y502865D01*
G74*
D01*
G03X375865Y514164I11299J0*
G01*
X375865Y514164D01*
X365815Y514164D01*
G75*
D01*
G03X356718Y509567I0J-11299*
G01*
G74*
D01*
G03X351210Y513053I11279J11726*
G01*
X351210Y513053D01*
X351210Y503610D01*
X354540Y503610D01*
D02*
G37*
G36*
X340440Y497840D02*
G75*
D01*
G03X340440Y497840I5000J0*
G01*
D02*
G37*
G36*
X337314Y517100D02*
X337314Y517100D01*
X353566Y517100D01*
X345440Y525226D01*
X337314Y517100D01*
D02*
G37*
G36*
X330227Y503610D02*
X330227Y503610D01*
X339671Y503610D01*
X339671Y513053D01*
G74*
D01*
G03X330227Y503610I5768J15213*
G01*
D02*
G37*
G36*
X405370Y518160D02*
G75*
D01*
G03X405370Y518160I16270J0*
G01*
D02*
G37*
G36*
X329140Y541526D02*
X329140Y541526D01*
X329140Y525274D01*
X337266Y533400D01*
X329140Y541526D01*
D02*
G37*
G36*
X361740Y525274D02*
X361740Y525274D01*
X361740Y541526D01*
X353614Y533400D01*
X361740Y525274D01*
D02*
G37*
G36*
X340440Y533400D02*
G75*
D01*
G03X340440Y533400I5000J0*
G01*
D02*
G37*
G36*
X533480Y634840D02*
G75*
D01*
G03X533480Y634840I5000J0*
G01*
D02*
G37*
G36*
X482680Y609440D02*
G75*
D01*
G03X482680Y609440I5000J0*
G01*
D02*
G37*
G36*
X400202Y672127D02*
G74*
D01*
G03X391105Y676724I9097J6702*
G01*
X391105Y676724D01*
X381055Y676724D01*
G75*
D01*
G03X369756Y665425I0J-11299*
G01*
X369756Y665425D01*
X369756Y655375D01*
G75*
D01*
G03X381055Y644076I11299J0*
G01*
X381055Y644076D01*
X391105Y644076D01*
G74*
D01*
G03X400202Y648673I0J11299*
G01*
G75*
D01*
G03X424180Y650230I11278J11727*
G01*
G75*
D01*
G03X424180Y670570I12700J10170*
G01*
G75*
D01*
G03X400202Y672127I-12700J-10170*
G01*
D02*
G37*
G36*
X329170Y663400D02*
G75*
D01*
G03X329170Y663400I16270J0*
G01*
D02*
G37*
%LPD*%
G36*
X599964Y709341D02*
X599964Y709341D01*
X585392Y723912D01*
X585392Y844710D01*
X590920Y850238D01*
G75*
D01*
G03X607288Y856262I3440J15901*
G01*
G74*
D01*
G03X608449Y854829I7390J4800*
G01*
X608449Y854829D01*
X722708Y740570D01*
X722708Y586597D01*
X709934Y599370D01*
X699759Y609546D01*
X607741Y701564D01*
G75*
D01*
G03X627380Y706110I6940J14715*
G01*
G75*
D01*
G03X651358Y704553I12700J10170*
G01*
G74*
D01*
G03X659691Y699981I9097J6701*
G01*
X659691Y699981D01*
X659691Y710491D01*
X655285Y710491D01*
G75*
D01*
G03X655285Y722069I-15204J5789*
G01*
X655285Y722069D01*
X659691Y722069D01*
X659691Y732579D01*
G74*
D01*
G03X651358Y728007I764J11273*
G01*
G75*
D01*
G03X627380Y726450I-11278J-11727*
G01*
G75*
D01*
G03X599964Y709341I-12700J-10170*
G01*
D02*
G37*
%LPC*%
G36*
X710717Y645563D02*
X710717Y645563D01*
X704040Y652241D01*
X699759Y647960D01*
X697363Y645563D01*
G75*
D01*
G03X710717Y645563I6677J14837*
G01*
D02*
G37*
G36*
X699759Y662983D02*
G75*
D01*
G03X699759Y662983I4281J-2583*
G01*
D02*
G37*
G36*
X697363Y675237D02*
X697363Y675237D01*
X704040Y668559D01*
X710717Y675237D01*
G75*
D01*
G03X697363Y675237I-6677J-14837*
G01*
D02*
G37*
G36*
X718877Y667077D02*
X718877Y667077D01*
X712199Y660400D01*
X718877Y653723D01*
G75*
D01*
G03X718877Y667077I-14837J6677*
G01*
D02*
G37*
G36*
X689203Y667077D02*
G75*
D01*
G03X689203Y653723I14837J-6677*
G01*
X689203Y653723D01*
X695881Y660400D01*
X689203Y667077D01*
D02*
G37*
G36*
X671269Y699981D02*
G74*
D01*
G03X681779Y710491I763J11273*
G01*
X681779Y710491D01*
X671269Y710491D01*
X671269Y699981D01*
D02*
G37*
G36*
X660480Y716280D02*
G75*
D01*
G03X660480Y716280I5000J0*
G01*
D02*
G37*
G36*
X681779Y722069D02*
G74*
D01*
G03X671269Y732579I11273J763*
G01*
X671269Y732579D01*
X671269Y722069D01*
X681779Y722069D01*
D02*
G37*
%LPD*%
G36*
X603461Y564589D02*
G74*
D01*
G02X604146Y567768I11273J766*
G01*
X604146Y567768D01*
X603172Y567768D01*
X603172Y534144D01*
G75*
D01*
G02X600583Y527905I-8812J0*
G01*
X600583Y527905D01*
X599855Y527177D01*
G74*
D01*
G02X595837Y524872I6239J6221*
G01*
G75*
D01*
G02X593608Y524588I-2219J8528*
G01*
X593608Y524588D01*
X577557Y524588D01*
G75*
D01*
G02X551244Y523151I-13677J8810*
G01*
G74*
D01*
G02X548650Y520540I12764J10087*
G01*
G75*
D01*
G02X548650Y495140I-10170J-12700*
G01*
G74*
D01*
G02X551116Y492689I10171J12699*
G01*
G75*
D01*
G02X579782Y479160I12766J-10086*
G01*
X579782Y479160D01*
X603596Y455347D01*
G75*
D01*
G02X609590Y469900I16163J1854*
G01*
G75*
D01*
G02X609590Y495300I10170J12700*
G01*
G75*
D01*
G02X609590Y520700I10170J12700*
G01*
G75*
D01*
G02X608033Y544678I10170J12700*
G01*
G74*
D01*
G02X603461Y553011I6701J9097*
G01*
X603461Y553011D01*
X613971Y553011D01*
X613971Y548605D01*
G75*
D01*
G02X625549Y548605I5789J-15204*
G01*
X625549Y548605D01*
X625549Y553011D01*
X629955Y553011D01*
G75*
D01*
G02X629955Y564589I15204J5789*
G01*
X629955Y564589D01*
X625549Y564589D01*
X625549Y567768D01*
X613971Y567768D01*
X613971Y564589D01*
X603461Y564589D01*
D02*
G37*
%LPC*%
G36*
X614760Y558800D02*
G75*
D01*
G02X614760Y558800I5000J0*
G01*
D02*
G37*
%LPD*%
G54D11*
X353566Y549700D02*
X337314Y549700D01*
X345440Y541574D01*
X353566Y549700D01*
X339671Y441987D02*
X339671Y451431D01*
X330227Y451431D01*
G74*
D01*
G03X339671Y441987I15213J5769*
G01*
X354540Y462970D02*
G74*
D01*
G03X354516Y462225I11275J736*
G01*
X354516Y452175D01*
G75*
D01*
G03X354540Y451431I11299J-8*
G01*
X351210Y451431D01*
X351210Y441987D01*
G74*
D01*
G03X356718Y445473I5771J15212*
G01*
G75*
D01*
G03X365815Y440876I9097J6702*
G01*
X375865Y440876D01*
G75*
D01*
G03X387164Y452175I0J11299*
G01*
X387164Y462225D01*
G74*
D01*
G03X375865Y473524I11299J0*
G01*
X365815Y473524D01*
G75*
D01*
G03X356718Y468927I0J-11299*
G01*
G74*
D01*
G03X351210Y472413I11279J11726*
G01*
X351210Y462970D01*
X354540Y462970D01*
X340440Y457200D02*
G75*
D01*
G03X340440Y457200I5000J0*
G01*
X405370Y469477D02*
G75*
D01*
G03X405370Y469477I16270J0*
G01*
X330227Y462970D02*
X339671Y462970D01*
X339671Y472413D01*
G74*
D01*
G03X330227Y462970I5768J15213*
G01*
X339671Y482627D02*
X339671Y492071D01*
X330227Y492071D01*
G74*
D01*
G03X339671Y482627I15213J5769*
G01*
X354540Y503610D02*
G74*
D01*
G03X354516Y502865I11275J736*
G01*
X354516Y492815D01*
G75*
D01*
G03X354540Y492071I11299J-8*
G01*
X351210Y492071D01*
X351210Y482627D01*
G74*
D01*
G03X356718Y486113I5771J15212*
G01*
G75*
D01*
G03X365815Y481516I9097J6702*
G01*
X375865Y481516D01*
G75*
D01*
G03X387164Y492815I0J11299*
G01*
X387164Y502865D01*
G74*
D01*
G03X375865Y514164I11299J0*
G01*
X365815Y514164D01*
G75*
D01*
G03X356718Y509567I0J-11299*
G01*
G74*
D01*
G03X351210Y513053I11279J11726*
G01*
X351210Y503610D01*
X354540Y503610D01*
X340440Y497840D02*
G75*
D01*
G03X340440Y497840I5000J0*
G01*
X337314Y517100D02*
X353566Y517100D01*
X345440Y525226D01*
X337314Y517100D01*
X330227Y503610D02*
X339671Y503610D01*
X339671Y513053D01*
G74*
D01*
G03X330227Y503610I5768J15213*
G01*
X405370Y518160D02*
G75*
D01*
G03X405370Y518160I16270J0*
G01*
X329140Y541526D02*
X329140Y525274D01*
X337266Y533400D01*
X329140Y541526D01*
X361740Y525274D02*
X361740Y541526D01*
X353614Y533400D01*
X361740Y525274D01*
X340440Y533400D02*
G75*
D01*
G03X340440Y533400I5000J0*
G01*
X533480Y634840D02*
G75*
D01*
G03X533480Y634840I5000J0*
G01*
X482680Y609440D02*
G75*
D01*
G03X482680Y609440I5000J0*
G01*
X400202Y672127D02*
G74*
D01*
G03X391105Y676724I9097J6702*
G01*
X381055Y676724D01*
G75*
D01*
G03X369756Y665425I0J-11299*
G01*
X369756Y655375D01*
G75*
D01*
G03X381055Y644076I11299J0*
G01*
X391105Y644076D01*
G74*
D01*
G03X400202Y648673I0J11299*
G01*
G75*
D01*
G03X424180Y650230I11278J11727*
G01*
G75*
D01*
G03X424180Y670570I12700J10170*
G01*
G75*
D01*
G03X400202Y672127I-12700J-10170*
G01*
X329170Y663400D02*
G75*
D01*
G03X329170Y663400I16270J0*
G01*
X690003Y407797D02*
X735386Y453180D01*
X735386Y371971D01*
X232360Y371971D01*
X232360Y993700D01*
X735386Y993700D01*
X735386Y752817D01*
X623492Y864710D01*
X623492Y924560D01*
G74*
D01*
G03X620903Y930799I8812J0*
G01*
X608219Y943483D01*
G74*
D01*
G03X601980Y946072I6239J6222*
G01*
X582637Y946072D01*
G75*
D01*
G03X557381Y925830I-13671J-8820*
G01*
G74*
D01*
G03X556260Y924570I11579J11430*
G01*
G75*
D01*
G03X530860Y924570I-12700J-10170*
G01*
G75*
D01*
G03X505460Y924570I-12700J-10170*
G01*
G75*
D01*
G03X480060Y924570I-12700J-10170*
G01*
G75*
D01*
G03X454660Y924570I-12700J-10170*
G01*
G75*
D01*
G03X430233Y903122I-12698J-10172*
G01*
G74*
D01*
G03X425636Y894025I6702J9097*
G01*
X425636Y883975D01*
G75*
D01*
G03X436935Y872676I11299J0*
G01*
X446985Y872676D01*
G74*
D01*
G03X456082Y877273I0J11299*
G01*
G75*
D01*
G03X480060Y878830I11278J11727*
G01*
G75*
D01*
G03X505460Y878830I12700J10170*
G01*
G75*
D01*
G03X530860Y878830I12700J10170*
G01*
G75*
D01*
G03X556260Y878830I12700J10170*
G01*
G74*
D01*
G03X557381Y877570I12700J10170*
G01*
G75*
D01*
G03X553233Y861974I11579J-11429*
G01*
G75*
D01*
G03X552528Y858509I8107J-3454*
G01*
X552528Y799067D01*
G74*
D01*
G03X543505Y803564I9022J6802*
G01*
X533455Y803564D01*
G75*
D01*
G03X522156Y792265I0J-11299*
G01*
X522156Y782215D01*
G75*
D01*
G03X526753Y773118I11299J0*
G01*
G75*
D01*
G03X528310Y749140I11727J-11278*
G01*
G75*
D01*
G03X528310Y723740I10170J-12700*
G01*
G75*
D01*
G03X528310Y698340I10170J-12700*
G01*
G75*
D01*
G03X528310Y672940I10170J-12700*
G01*
G75*
D01*
G03X528310Y647540I10170J-12700*
G01*
G74*
D01*
G03X523267Y640610I10169J12700*
G01*
X532711Y640610D01*
X532711Y645027D01*
G75*
D01*
G03X544250Y645027I5770J15213*
G01*
X544250Y640610D01*
X553693Y640610D01*
G74*
D01*
G03X548650Y647540I15212J5770*
G01*
G75*
D01*
G03X548650Y672940I-10170J12700*
G01*
G75*
D01*
G03X548650Y698340I-10170J12700*
G01*
G74*
D01*
G03X552915Y703534I10170J12699*
G01*
G74*
D01*
G03X555109Y699889I8424J2587*
G01*
X578297Y676700D01*
X564040Y676700D01*
G75*
D01*
G03X557740Y670400I0J-6300*
G01*
X557740Y650400D01*
G75*
D01*
G03X564040Y644100I6300J0*
G01*
X584040Y644100D01*
G75*
D01*
G03X590340Y650400I0J6300*
G01*
X590340Y664657D01*
X590628Y664370D01*
X590628Y621614D01*
X587426Y618412D01*
X577557Y618412D01*
G75*
D01*
G03X551116Y619689I-13677J-8810*
G01*
G74*
D01*
G03X548650Y622140I12636J10247*
G01*
G74*
D01*
G03X553693Y629071I10170J12700*
G01*
X544250Y629071D01*
X544250Y624653D01*
G75*
D01*
G03X532711Y624653I-5769J-15213*
G01*
X532711Y629071D01*
X523267Y629071D01*
G74*
D01*
G03X528310Y622140I15213J5769*
G01*
G75*
D01*
G03X528310Y596740I10170J-12700*
G01*
G74*
D01*
G03X525844Y594289I10171J12699*
G01*
G75*
D01*
G03X500316Y594289I-12764J-10088*
G01*
G74*
D01*
G03X497850Y596740I12636J10247*
G01*
G74*
D01*
G03X502893Y603671I10170J12700*
G01*
X493450Y603671D01*
X493450Y599253D01*
G75*
D01*
G03X481911Y599253I-5769J-15213*
G01*
X481911Y603671D01*
X472467Y603671D01*
G74*
D01*
G03X477510Y596740I15213J5769*
G01*
G75*
D01*
G03X477510Y571340I10170J-12700*
G01*
G75*
D01*
G03X477510Y545940I10170J-12700*
G01*
G75*
D01*
G03X477510Y520540I10170J-12700*
G01*
G75*
D01*
G03X477510Y495140I10170J-12700*
G01*
G75*
D01*
G03X477510Y469740I10170J-12700*
G01*
G75*
D01*
G03X497850Y469740I10170J-12700*
G01*
G75*
D01*
G03X497850Y495140I-10170J12700*
G01*
G75*
D01*
G03X497850Y520540I-10170J12700*
G01*
G75*
D01*
G03X497850Y545940I-10170J12700*
G01*
G75*
D01*
G03X497850Y571340I-10170J12700*
G01*
G74*
D01*
G03X500444Y573951I10171J12699*
G01*
G74*
D01*
G03X504268Y570523I12635J10248*
G01*
X504268Y422832D01*
X349090Y422832D01*
X290752Y481170D01*
X290752Y674663D01*
G75*
D01*
G03X290752Y702017I-8810J13677*
G01*
X290752Y781210D01*
X309262Y799720D01*
G74*
D01*
G03X308820Y797400I5858J2318*
G01*
X308820Y777400D01*
G75*
D01*
G03X315120Y771100I6300J0*
G01*
X335120Y771100D01*
G75*
D01*
G03X341420Y777400I0J6300*
G01*
X341420Y797400D01*
G74*
D01*
G03X339948Y801448I6300J1*
G01*
X384970Y801448D01*
X453468Y732950D01*
X453468Y648677D01*
G75*
D01*
G03X474916Y624751I8816J-13673*
G01*
G74*
D01*
G03X477510Y622140I12764J10087*
G01*
G74*
D01*
G03X472467Y615210I10169J12700*
G01*
X481911Y615210D01*
X481911Y619627D01*
G75*
D01*
G03X493450Y619627I5770J15213*
G01*
X493450Y615210D01*
X502893Y615210D01*
G74*
D01*
G03X497850Y622140I15212J5770*
G01*
G75*
D01*
G03X497850Y647540I-10170J12700*
G01*
G75*
D01*
G03X497850Y672940I-10170J12700*
G01*
G75*
D01*
G03X497850Y698340I-10170J12700*
G01*
G75*
D01*
G03X497850Y723740I-10170J12700*
G01*
G75*
D01*
G03X497850Y749140I-10170J12700*
G01*
G75*
D01*
G03X499407Y773118I-10170J12700*
G01*
G75*
D01*
G03X504004Y782215I-6702J9097*
G01*
X504004Y792265D01*
G74*
D01*
G03X492705Y803564I11299J0*
G01*
X482655Y803564D01*
G75*
D01*
G03X471356Y792265I0J-11299*
G01*
X471356Y788457D01*
G75*
D01*
G03X471356Y786343I-16236J-1057*
G01*
X471356Y782215D01*
G75*
D01*
G03X475953Y773118I11299J0*
G01*
G75*
D01*
G03X477510Y749140I11727J-11278*
G01*
G75*
D01*
G03X477510Y723740I10170J-12700*
G01*
G75*
D01*
G03X477510Y698340I10170J-12700*
G01*
G75*
D01*
G03X477510Y672940I10170J-12700*
G01*
G75*
D01*
G03X477510Y647540I10170J-12700*
G01*
G74*
D01*
G03X475044Y645089I10171J12699*
G01*
G74*
D01*
G03X471092Y648677I12764J10088*
G01*
X471092Y736600D01*
G74*
D01*
G03X468503Y742839I8812J0*
G01*
X459759Y751584D01*
X459759Y751584D01*
X394859Y816483D01*
G74*
D01*
G03X388620Y819072I6239J6222*
G01*
X338797Y819072D01*
G75*
D01*
G03X311443Y819072I-13677J-8810*
G01*
X307340Y819072D01*
G75*
D01*
G03X306145Y818991I-3J-8812*
G01*
G74*
D01*
G03X301109Y816491I1196J8731*
G01*
X275709Y791091D01*
G75*
D01*
G03X273128Y784843I6230J-6231*
G01*
X273128Y702017D01*
G75*
D01*
G03X273128Y674663I8810J-13677*
G01*
X273128Y477537D01*
G75*
D01*
G03X275709Y471289I8812J-17*
G01*
X339209Y407789D01*
G74*
D01*
G03X345079Y405215I6231J6230*
G01*
G75*
D01*
G03X345440Y405208I351J8805*
G01*
X510530Y405208D01*
G75*
D01*
G03X513691Y405790I12J8812*
G01*
G74*
D01*
G03X516779Y407797I3152J8229*
G01*
X519303Y410321D01*
G75*
D01*
G03X521892Y416560I-6222J6239*
G01*
X521892Y570523D01*
G74*
D01*
G03X525716Y573951I8811J13676*
G01*
G74*
D01*
G03X528310Y571340I12764J10087*
G01*
G75*
D01*
G03X528310Y545940I10170J-12700*
G01*
G75*
D01*
G03X528310Y520540I10170J-12700*
G01*
G75*
D01*
G03X528310Y495140I10170J-12700*
G01*
G75*
D01*
G03X528310Y469740I10170J-12700*
G01*
G75*
D01*
G03X551244Y446951I10170J-12700*
G01*
G75*
D01*
G03X571085Y442612I12636J10248*
G01*
X605909Y407789D01*
G74*
D01*
G03X611662Y405221I6231J6230*
G01*
G75*
D01*
G03X612140Y405208I478J8798*
G01*
X683755Y405208D01*
G75*
D01*
G03X686392Y405608I12J8812*
G01*
G74*
D01*
G03X690003Y407797I2630J8411*
G01*
X614760Y558800D02*
G75*
D01*
G02X614760Y558800I5000J0*
G01*
X603461Y564589D02*
G74*
D01*
G02X604146Y567768I11273J766*
G01*
X603172Y567768D01*
X603172Y534144D01*
G75*
D01*
G02X600583Y527905I-8812J0*
G01*
X599855Y527177D01*
G74*
D01*
G02X595837Y524872I6239J6221*
G01*
G75*
D01*
G02X593608Y524588I-2219J8528*
G01*
X577557Y524588D01*
G75*
D01*
G02X551244Y523151I-13677J8810*
G01*
G74*
D01*
G02X548650Y520540I12764J10087*
G01*
G75*
D01*
G02X548650Y495140I-10170J-12700*
G01*
G74*
D01*
G02X551116Y492689I10171J12699*
G01*
G75*
D01*
G02X579782Y479160I12766J-10086*
G01*
X603596Y455347D01*
G75*
D01*
G02X609590Y469900I16163J1854*
G01*
G75*
D01*
G02X609590Y495300I10170J12700*
G01*
G75*
D01*
G02X609590Y520700I10170J12700*
G01*
G75*
D01*
G02X608033Y544678I10170J12700*
G01*
G74*
D01*
G02X603461Y553011I6701J9097*
G01*
X613971Y553011D01*
X613971Y548605D01*
G75*
D01*
G02X625549Y548605I5789J-15204*
G01*
X625549Y553011D01*
X629955Y553011D01*
G75*
D01*
G02X629955Y564589I15204J5789*
G01*
X625549Y564589D01*
X625549Y567768D01*
X613971Y567768D01*
X613971Y564589D01*
X603461Y564589D01*
X710717Y645563D02*
X704040Y652241D01*
X699759Y647960D01*
X697363Y645563D01*
G75*
D01*
G03X710717Y645563I6677J14837*
G01*
X699759Y662983D02*
G75*
D01*
G03X699759Y662983I4281J-2583*
G01*
X697363Y675237D02*
X704040Y668559D01*
X710717Y675237D01*
G75*
D01*
G03X697363Y675237I-6677J-14837*
G01*
X718877Y667077D02*
X712199Y660400D01*
X718877Y653723D01*
G75*
D01*
G03X718877Y667077I-14837J6677*
G01*
X689203Y667077D02*
G75*
D01*
G03X689203Y653723I14837J-6677*
G01*
X695881Y660400D01*
X689203Y667077D01*
X671269Y699981D02*
G74*
D01*
G03X681779Y710491I763J11273*
G01*
X671269Y710491D01*
X671269Y699981D01*
X660480Y716280D02*
G75*
D01*
G03X660480Y716280I5000J0*
G01*
X681779Y722069D02*
G74*
D01*
G03X671269Y732579I11273J763*
G01*
X671269Y722069D01*
X681779Y722069D01*
X599964Y709341D02*
X585392Y723912D01*
X585392Y844710D01*
X590920Y850238D01*
G75*
D01*
G03X607288Y856262I3440J15901*
G01*
G74*
D01*
G03X608449Y854829I7390J4800*
G01*
X722708Y740570D01*
X722708Y586597D01*
X709934Y599370D01*
X699759Y609546D01*
X607741Y701564D01*
G75*
D01*
G03X627380Y706110I6940J14715*
G01*
G75*
D01*
G03X651358Y704553I12700J10170*
G01*
G74*
D01*
G03X659691Y699981I9097J6701*
G01*
X659691Y710491D01*
X655285Y710491D01*
G75*
D01*
G03X655285Y722069I-15204J5789*
G01*
X659691Y722069D01*
X659691Y732579D01*
G74*
D01*
G03X651358Y728007I764J11273*
G01*
G75*
D01*
G03X627380Y726450I-11278J-11727*
G01*
G75*
D01*
G03X599964Y709341I-12700J-10170*
G01*
G54D12*
X731520Y461776D02*
X731520Y744220D01*
X614680Y861060D02*
X731520Y744220D01*
X617220Y429260D02*
X563880Y482600D01*
X675640Y429260D02*
X617220Y429260D01*
X718820Y472440D02*
X675640Y429260D01*
X718820Y578022D02*
X718820Y472440D01*
X576580Y720262D02*
X718820Y578022D01*
X576580Y848360D02*
X576580Y720262D01*
X576580Y848360D02*
X594360Y866140D01*
X568960Y457200D02*
X563880Y457200D01*
X612140Y414020D02*
X568960Y457200D01*
X612140Y414020D02*
X683764Y414020D01*
X731520Y461776D02*
X683764Y414020D01*
X614680Y924560D02*
X614680Y861060D01*
X601980Y937260D02*
X614680Y924560D01*
X568960Y937260D02*
X601980Y937260D01*
X561340Y858520D02*
X568960Y866140D01*
X561340Y706120D02*
X561340Y858520D01*
X599440Y668020D02*
X561340Y706120D01*
X599440Y617964D02*
X599440Y668020D01*
X599440Y617964D02*
X591076Y609600D01*
X563880Y609600D02*
X591076Y609600D01*
X563880Y533400D02*
X593616Y533400D01*
X594360Y534144D02*
X594360Y575836D01*
X594360Y534144D02*
X593616Y533400D01*
X594360Y575836D02*
X595104Y576580D01*
X662196Y576580D01*
X675640Y563136D02*
X662196Y576580D01*
X675640Y563136D02*
X675640Y533400D01*
X563880Y571500D02*
X563880Y558800D01*
X586740Y594360D02*
X563880Y571500D01*
X665480Y594360D02*
X586740Y594360D01*
X698500Y561340D02*
X665480Y594360D01*
X698500Y485140D02*
X698500Y561340D01*
X670560Y457200D02*
X698500Y485140D01*
X462280Y736600D02*
X462280Y635000D01*
X388620Y810260D02*
X462280Y736600D01*
X307340Y810260D02*
X388620Y810260D01*
X307340Y810260D02*
X281940Y784860D01*
X281940Y477520D02*
X281940Y784860D01*
X345440Y414020D02*
X281940Y477520D01*
X510540Y414020D02*
X345440Y414020D01*
X513080Y416560D02*
X510540Y414020D01*
X513080Y584200D02*
X513080Y416560D01*
G54D13*
X421640Y518160D03*
X421640Y469477D03*
X704040Y660400D03*
X345440Y663400D03*
X455120Y787400D03*
X345440Y457200D03*
X345440Y497840D03*
X467360Y914400D03*
X467360Y889000D03*
X441960Y914400D03*
X543560Y914400D03*
X543560Y889000D03*
X518160Y914400D03*
X518160Y889000D03*
X492760Y914400D03*
X492760Y889000D03*
X594360Y914400D03*
X594360Y889000D03*
X568960Y914400D03*
X568960Y889000D03*
X640080Y716280D03*
X614680Y716280D03*
X645160Y508000D03*
X619760Y508000D03*
X645160Y558800D03*
X645160Y533400D03*
X619760Y533400D03*
X619760Y457200D03*
X645160Y457200D03*
X645160Y482600D03*
X619760Y482600D03*
X538480Y507840D03*
X538480Y660240D03*
X538480Y736440D03*
X538480Y761840D03*
X538480Y711040D03*
X538480Y685640D03*
X538480Y584040D03*
X538480Y634840D03*
X538480Y609440D03*
X538480Y533240D03*
X538480Y558640D03*
X538480Y457040D03*
X538480Y482440D03*
X487680Y507840D03*
X487680Y660240D03*
X487680Y736440D03*
X487680Y761840D03*
X487680Y711040D03*
X487680Y685640D03*
X487680Y584040D03*
X487680Y634840D03*
X487680Y609440D03*
X487680Y533240D03*
X487680Y558640D03*
X487680Y457040D03*
X487680Y482440D03*
X411480Y660400D03*
X436880Y660400D03*
X563880Y482600D03*
X594360Y866140D03*
X563880Y457200D03*
X568960Y937260D03*
X568960Y866140D03*
X563880Y609600D03*
X563880Y533400D03*
X675640Y533400D03*
X563880Y558800D03*
X670560Y457200D03*
X462280Y635000D03*
X325120Y810260D03*
X281940Y688340D03*
X513080Y584200D03*
G54D14*
X574040Y660400D03*
X345440Y533400D03*
X325120Y787400D03*
G54D15*
X370840Y457200D03*
X370840Y497840D03*
X441960Y889000D03*
X665480Y716280D03*
X619760Y558800D03*
X538480Y787240D03*
X487680Y787240D03*
X386080Y660400D03*
G54D16*
X365815Y452175D02*
X375865Y452175D01*
X375865Y462225D01*
X365815Y462225D01*
X365815Y452175D01*D02*
X365815Y492815D02*
X375865Y492815D01*
X375865Y502865D01*
X365815Y502865D01*
X365815Y492815D01*D02*
X436935Y883975D02*
X446985Y883975D01*
X446985Y894025D01*
X436935Y894025D01*
X436935Y883975D01*D02*
X660455Y711255D02*
X670505Y711255D01*
X670505Y721305D01*
X660455Y721305D01*
X660455Y711255D01*D02*
X614735Y553775D02*
X624785Y553775D01*
X624785Y563825D01*
X614735Y563825D01*
X614735Y553775D01*D02*
X533455Y782215D02*
X543505Y782215D01*
X543505Y792265D01*
X533455Y792265D01*
X533455Y782215D01*D02*
X482655Y782215D02*
X492705Y782215D01*
X492705Y792265D01*
X482655Y792265D01*
X482655Y782215D01*D02*
X381055Y655375D02*
X391105Y655375D01*
X391105Y665425D01*
X381055Y665425D01*
X381055Y655375D01*D02*

M02*
