G04 Generated by Ultiboard 14.0 *
%FSLAX24Y24*%
%MOIN*%

%ADD10C,0.0001*%
%ADD11C,0.0500*%
%ADD12C,0.0633*%
%ADD13R,0.0208X0.0208*%
%ADD14C,0.0392*%
%ADD15C,0.0490*%
%ADD16R,0.0490X0.0490*%
%ADD17C,0.0605*%
%ADD18R,0.0605X0.0605*%
%ADD19C,0.0591*%
%ADD20R,0.0591X0.0591*%


G04 ColorRGB FF00CC for the following layer *
%LNSolder Mask Top*%
%LPD*%
G54D10*
G54D11*
X33400Y16800D03*
X33400Y14883D03*
X12600Y18600D03*
X11600Y18600D03*
X12600Y21600D03*
X11600Y21600D03*
G54D12*
X38000Y24800D03*
X38000Y25800D03*
X31000Y24400D03*
X37300Y16700D03*
X35200Y15800D03*
X26200Y14000D03*
X20200Y14000D03*
X17200Y14000D03*
X16200Y14000D03*
X18200Y14000D03*
X19200Y14000D03*
X23200Y14000D03*
X21200Y14000D03*
X22200Y14000D03*
X25200Y14000D03*
X24200Y14000D03*
X28200Y14000D03*
X27200Y14000D03*
X35200Y17000D03*
X17200Y26000D03*
X23200Y26000D03*
X26200Y26000D03*
X27200Y26000D03*
X25200Y26000D03*
X24200Y26000D03*
X20200Y26000D03*
X22200Y26000D03*
X21200Y26000D03*
X18200Y26000D03*
X19200Y26000D03*
X15200Y26000D03*
X16200Y26000D03*
G54D13*
X31000Y25400D03*
X37300Y17700D03*
X35200Y14800D03*
X15200Y14000D03*
X35200Y18000D03*
X28200Y26000D03*
G54D14*
X30896Y25296D02*
X31104Y25296D01*
X31104Y25504D01*
X30896Y25504D01*
X30896Y25296D01*D02*
X37196Y17596D02*
X37404Y17596D01*
X37404Y17804D01*
X37196Y17804D01*
X37196Y17596D01*D02*
X35096Y14696D02*
X35304Y14696D01*
X35304Y14904D01*
X35096Y14904D01*
X35096Y14696D01*D02*
X15096Y13896D02*
X15304Y13896D01*
X15304Y14104D01*
X15096Y14104D01*
X15096Y13896D01*D02*
X35096Y17896D02*
X35304Y17896D01*
X35304Y18104D01*
X35096Y18104D01*
X35096Y17896D01*D02*
X28096Y25896D02*
X28304Y25896D01*
X28304Y26104D01*
X28096Y26104D01*
X28096Y25896D01*D02*
G54D15*
X15200Y23000D03*
X16200Y17000D03*
X17200Y17000D03*
X18200Y17000D03*
X20200Y17000D03*
X19200Y17000D03*
X21200Y17000D03*
X23200Y17000D03*
X22200Y17000D03*
X24200Y17000D03*
X25200Y17000D03*
X26200Y17000D03*
X27200Y17000D03*
X28200Y17000D03*
X21200Y23000D03*
X16200Y23000D03*
X17200Y23000D03*
X18200Y23000D03*
X20200Y23000D03*
X19200Y23000D03*
X23200Y23000D03*
X22200Y23000D03*
X24200Y23000D03*
X25200Y23000D03*
X26200Y23000D03*
X27200Y23000D03*
X28200Y23000D03*
G54D16*
X15200Y17000D03*
G54D17*
X33600Y20800D03*
X33600Y21800D03*
X12000Y26800D03*
X12000Y25800D03*
X12000Y24800D03*
X12000Y23800D03*
G54D18*
X33600Y19800D03*
G54D19*
X31000Y22718D03*
X35400Y22412D03*
G54D20*
X31000Y17600D03*
X40518Y22412D03*

M02*
