G04 Generated by Ultiboard 14.0 *
%FSLAX24Y24*%
%MOIN*%

%ADD10C,0.0001*%
%ADD11C,0.0100*%
%ADD12C,0.0170*%
%ADD13C,0.0500*%
%ADD14C,0.0633*%
%ADD15R,0.0208X0.0208*%
%ADD16C,0.0392*%
%ADD17C,0.0490*%
%ADD18C,0.0605*%
%ADD19R,0.0605X0.0605*%
%ADD20C,0.0591*%


G04 ColorRGB 0000FF for the following layer *
%LNCopper Bottom*%
%LPD*%
G54D10*
G36*
X41399Y12500D02*
X41399Y12500D01*
X9800Y12500D01*
X9800Y28499D01*
X41399Y28499D01*
X41399Y12500D01*
D02*
G37*
%LPC*%
G36*
X36903Y20002D02*
G74*
D01*
G03X36700Y20086I202J202*
G01*
X36700Y20086D01*
X34103Y20086D01*
X34103Y20102D01*
G74*
D01*
G03X33902Y20303I201J0*
G01*
X33902Y20303D01*
X33298Y20303D01*
G75*
D01*
G03X33097Y20102I0J-201*
G01*
X33097Y20102D01*
X33097Y19498D01*
G75*
D01*
G03X33298Y19297I201J0*
G01*
X33298Y19297D01*
X33902Y19297D01*
G75*
D01*
G03X34103Y19498I0J201*
G01*
X34103Y19498D01*
X34103Y19514D01*
X36581Y19514D01*
X37745Y18350D01*
X37914Y18181D01*
X37914Y17986D01*
X37758Y17986D01*
G74*
D01*
G03X37404Y18202I354J182*
G01*
X37404Y18202D01*
X37196Y18202D01*
G75*
D01*
G03X36798Y17804I0J-398*
G01*
X36798Y17804D01*
X36798Y17596D01*
G75*
D01*
G03X37196Y17198I398J0*
G01*
X37196Y17198D01*
X37404Y17198D01*
G74*
D01*
G03X37758Y17414I0J398*
G01*
X37758Y17414D01*
X37914Y17414D01*
X37914Y13698D01*
X37745Y13529D01*
X37344Y13128D01*
X29654Y13128D01*
X29702Y13177D01*
G75*
D01*
G03X29786Y13379I-201J202*
G01*
X29786Y13379D01*
X29786Y16781D01*
X30319Y17314D01*
X30596Y17314D01*
G75*
D01*
G03X30596Y17886I403J286*
G01*
X30596Y17886D01*
X30200Y17886D01*
G75*
D01*
G03X29997Y17803I-2J-286*
G01*
X29997Y17803D01*
X29297Y17103D01*
G75*
D01*
G03X29214Y16900I204J-202*
G01*
X29214Y16900D01*
X29214Y13536D01*
X28428Y13536D01*
G75*
D01*
G03X28486Y14430I-227J464*
G01*
X28486Y14430D01*
X28486Y16659D01*
G75*
D01*
G03X27914Y16659I-286J341*
G01*
X27914Y16659D01*
X27914Y14430D01*
G74*
D01*
G03X27700Y14130I285J430*
G01*
G74*
D01*
G03X27486Y14430I499J130*
G01*
X27486Y14430D01*
X27486Y16659D01*
G75*
D01*
G03X26914Y16659I-286J341*
G01*
X26914Y16659D01*
X26914Y14430D01*
G74*
D01*
G03X26700Y14130I285J430*
G01*
G74*
D01*
G03X26486Y14430I499J130*
G01*
X26486Y14430D01*
X26486Y16659D01*
G75*
D01*
G03X25914Y16659I-286J341*
G01*
X25914Y16659D01*
X25914Y14430D01*
G74*
D01*
G03X25700Y14130I285J430*
G01*
G74*
D01*
G03X25486Y14430I499J130*
G01*
X25486Y14430D01*
X25486Y16659D01*
G75*
D01*
G03X25331Y17425I-286J341*
G01*
X25331Y17425D01*
X25402Y17496D01*
G74*
D01*
G03X25418Y17513I200J204*
G01*
X25418Y17513D01*
X26164Y18259D01*
X31352Y18259D01*
X31614Y17997D01*
X31614Y16400D01*
G75*
D01*
G03X31697Y16197I286J-2*
G01*
X31697Y16197D01*
X32954Y14941D01*
G75*
D01*
G03X33657Y14514I445J-59*
G01*
X33657Y14514D01*
X34742Y14514D01*
G75*
D01*
G03X35096Y14298I354J182*
G01*
X35096Y14298D01*
X35304Y14298D01*
G75*
D01*
G03X35702Y14696I0J398*
G01*
X35702Y14696D01*
X35702Y14904D01*
G74*
D01*
G03X35304Y15302I398J0*
G01*
X35304Y15302D01*
X35096Y15302D01*
G75*
D01*
G03X34742Y15086I0J-398*
G01*
X34742Y15086D01*
X33802Y15086D01*
G75*
D01*
G03X33373Y15332I-402J-203*
G01*
X33373Y15332D01*
X32186Y16519D01*
X32186Y18116D01*
G74*
D01*
G03X32102Y18319I286J1*
G01*
X32102Y18319D01*
X31673Y18747D01*
G74*
D01*
G03X31571Y18814I204J199*
G01*
G75*
D01*
G03X31470Y18832I-100J-268*
G01*
X31470Y18832D01*
X26045Y18832D01*
G75*
D01*
G03X26001Y18828I4J-287*
G01*
G74*
D01*
G03X25843Y18748I44J283*
G01*
X25843Y18748D01*
X24997Y17903D01*
G74*
D01*
G03X24982Y17885I213J193*
G01*
X24982Y17885D01*
X24486Y17390D01*
X24486Y18531D01*
X25269Y19314D01*
X31381Y19314D01*
X33114Y17581D01*
X33114Y17147D01*
G75*
D01*
G03X33686Y17147I286J-346*
G01*
X33686Y17147D01*
X33686Y17414D01*
X34890Y17414D01*
G74*
D01*
G03X34717Y17183I311J413*
G01*
X34717Y17183D01*
X35017Y17183D01*
X35017Y17439D01*
G74*
D01*
G03X35103Y17498I116J261*
G01*
X35103Y17498D01*
X35103Y17498D01*
X35304Y17498D01*
G75*
D01*
G03X35702Y17896I0J398*
G01*
X35702Y17896D01*
X35702Y18104D01*
G74*
D01*
G03X35304Y18502I398J0*
G01*
X35304Y18502D01*
X35096Y18502D01*
G75*
D01*
G03X34698Y18104I0J-398*
G01*
X34698Y18104D01*
X34698Y17986D01*
X33519Y17986D01*
X31703Y19802D01*
G74*
D01*
G03X31588Y19873I203J201*
G01*
G75*
D01*
G03X31500Y19886I-85J-273*
G01*
X31500Y19886D01*
X25150Y19886D01*
G75*
D01*
G03X25063Y19873I-2J-286*
G01*
G74*
D01*
G03X24947Y19803I86J273*
G01*
X24947Y19803D01*
X23997Y18853D01*
G75*
D01*
G03X23914Y18649I204J-202*
G01*
X23914Y18649D01*
X23914Y17341D01*
G75*
D01*
G03X24401Y16603I286J-341*
G01*
X24401Y16603D01*
X24401Y15432D01*
X24171Y15202D01*
X23666Y15202D01*
X23486Y15382D01*
X23486Y16659D01*
G75*
D01*
G03X22914Y16659I-286J341*
G01*
X22914Y16659D01*
X22914Y15264D01*
G75*
D01*
G03X22997Y15061I286J-2*
G01*
X22997Y15061D01*
X23345Y14713D01*
X23345Y14713D01*
G75*
D01*
G03X23548Y14629I202J202*
G01*
X23548Y14629D01*
X24289Y14629D01*
G75*
D01*
G03X24356Y14637I0J286*
G01*
G74*
D01*
G03X24492Y14713I66J277*
G01*
X24492Y14713D01*
X24889Y15110D01*
G74*
D01*
G03X24914Y15138I200J204*
G01*
X24914Y15138D01*
X24914Y14430D01*
G74*
D01*
G03X24700Y14130I285J430*
G01*
G75*
D01*
G03X23700Y14130I-500J-127*
G01*
G75*
D01*
G03X22700Y14130I-500J-127*
G01*
G75*
D01*
G03X21700Y14130I-500J-127*
G01*
G75*
D01*
G03X20700Y14130I-500J-127*
G01*
G74*
D01*
G03X20486Y14430I499J130*
G01*
X20486Y14430D01*
X20486Y16659D01*
G75*
D01*
G03X19914Y16659I-286J341*
G01*
X19914Y16659D01*
X19914Y14430D01*
G74*
D01*
G03X19700Y14130I285J430*
G01*
G74*
D01*
G03X19486Y14430I499J130*
G01*
X19486Y14430D01*
X19486Y16659D01*
G75*
D01*
G03X18914Y16659I-286J341*
G01*
X18914Y16659D01*
X18914Y14430D01*
G74*
D01*
G03X18700Y14130I285J430*
G01*
G74*
D01*
G03X18486Y14430I499J130*
G01*
X18486Y14430D01*
X18486Y16659D01*
G75*
D01*
G03X17914Y16659I-286J341*
G01*
X17914Y16659D01*
X17914Y14430D01*
G74*
D01*
G03X17700Y14130I285J430*
G01*
G74*
D01*
G03X17486Y14430I499J130*
G01*
X17486Y14430D01*
X17486Y16659D01*
G75*
D01*
G03X16914Y16659I-286J341*
G01*
X16914Y16659D01*
X16914Y14430D01*
G74*
D01*
G03X16700Y14130I285J430*
G01*
G74*
D01*
G03X16486Y14430I499J130*
G01*
X16486Y14430D01*
X16486Y16659D01*
G75*
D01*
G03X15914Y16659I-286J341*
G01*
X15914Y16659D01*
X15914Y14430D01*
G74*
D01*
G03X15701Y14133I286J430*
G01*
G74*
D01*
G03X15304Y14502I397J29*
G01*
X15304Y14502D01*
X15096Y14502D01*
G75*
D01*
G03X14724Y14245I0J-398*
G01*
X14724Y14245D01*
X14724Y16119D01*
X15162Y16557D01*
G75*
D01*
G03X15486Y17341I41J442*
G01*
X15486Y17341D01*
X15486Y18000D01*
G74*
D01*
G03X15402Y18203I286J1*
G01*
X15402Y18203D01*
X12415Y21190D01*
G75*
D01*
G03X12785Y21190I185J409*
G01*
X12785Y21190D01*
X12600Y21374D01*
X12415Y21190D01*
X12190Y21415D01*
X12322Y21547D01*
X12374Y21600D01*
X12190Y21785D01*
G75*
D01*
G03X12190Y21415I409J-185*
G01*
X12190Y21415D01*
X12058Y21547D01*
X12058Y21547D01*
X12048Y21557D01*
G75*
D01*
G03X11257Y21891I-448J43*
G01*
X11257Y21891D01*
X11257Y25652D01*
X11508Y25903D01*
G75*
D01*
G03X12050Y26300I491J-102*
G01*
G75*
D01*
G03X11506Y26711I-50J500*
G01*
X11506Y26711D01*
X10768Y25973D01*
G74*
D01*
G03X10685Y25790I202J202*
G01*
G75*
D01*
G03X10684Y25771I285J-25*
G01*
X10684Y25771D01*
X10684Y21547D01*
X10684Y21547D01*
X10684Y15997D01*
G75*
D01*
G03X10768Y15794I287J0*
G01*
X10768Y15794D01*
X13923Y12639D01*
G74*
D01*
G03X14030Y12572I202J204*
G01*
G75*
D01*
G03X14126Y12555I97J269*
G01*
X14126Y12555D01*
X37462Y12555D01*
G74*
D01*
G03X37665Y12639I0J287*
G01*
X37665Y12639D01*
X38402Y13377D01*
G75*
D01*
G03X38486Y13579I-201J202*
G01*
X38486Y13579D01*
X38486Y18300D01*
G74*
D01*
G03X38402Y18503I286J1*
G01*
X38402Y18503D01*
X37745Y19160D01*
X37745Y19160D01*
X36903Y20002D01*
D02*
G37*
G36*
X38102Y25293D02*
X38102Y25293D01*
X38183Y25212D01*
X38183Y24983D01*
X38412Y24983D01*
X38580Y24815D01*
X38382Y24617D01*
X38183Y24617D01*
X38183Y24418D01*
X37952Y24186D01*
X36889Y24186D01*
G75*
D01*
G03X36686Y24103I-2J-286*
G01*
X36686Y24103D01*
X35483Y22900D01*
G75*
D01*
G03X35888Y22495I-83J-488*
G01*
X35888Y22495D01*
X37007Y23614D01*
X38071Y23614D01*
G74*
D01*
G03X38273Y23698I0J286*
G01*
X38273Y23698D01*
X39102Y24527D01*
G75*
D01*
G03X39186Y24729I-201J202*
G01*
X39186Y24729D01*
X39186Y24900D01*
G74*
D01*
G03X39102Y25103I286J1*
G01*
X39102Y25103D01*
X38507Y25698D01*
G75*
D01*
G03X38102Y25293I-507J102*
G01*
D02*
G37*
G36*
X29886Y22800D02*
X29886Y22800D01*
X29886Y26614D01*
X39111Y26614D01*
X40232Y25493D01*
X40232Y22816D01*
G75*
D01*
G03X40804Y22816I286J-403*
G01*
X40804Y22816D01*
X40804Y25612D01*
G74*
D01*
G03X40720Y25815I286J1*
G01*
X40720Y25815D01*
X39433Y27102D01*
G74*
D01*
G03X39313Y27174I203J202*
G01*
G75*
D01*
G03X39230Y27186I-82J-274*
G01*
X39230Y27186D01*
X29700Y27186D01*
G75*
D01*
G03X29677Y27185I1J-286*
G01*
G74*
D01*
G03X29497Y27103I21J284*
G01*
X29497Y27103D01*
X29397Y27003D01*
G75*
D01*
G03X29314Y26799I204J-202*
G01*
X29314Y26799D01*
X29314Y22919D01*
X28781Y22386D01*
X25219Y22386D01*
X25005Y22600D01*
G75*
D01*
G03X25486Y23341I195J400*
G01*
X25486Y23341D01*
X25486Y25570D01*
G74*
D01*
G03X25700Y25870I285J430*
G01*
G74*
D01*
G03X25914Y25570I499J130*
G01*
X25914Y25570D01*
X25914Y23341D01*
G75*
D01*
G03X26486Y23341I286J-341*
G01*
X26486Y23341D01*
X26486Y25570D01*
G74*
D01*
G03X26700Y25870I285J430*
G01*
G74*
D01*
G03X26914Y25570I499J130*
G01*
X26914Y25570D01*
X26914Y23341D01*
G75*
D01*
G03X27486Y23341I286J-341*
G01*
X27486Y23341D01*
X27486Y25570D01*
G74*
D01*
G03X27699Y25867I286J430*
G01*
G74*
D01*
G03X27914Y25542I397J29*
G01*
X27914Y25542D01*
X27914Y23341D01*
G75*
D01*
G03X28486Y23341I286J-341*
G01*
X28486Y23341D01*
X28486Y25542D01*
G75*
D01*
G03X28702Y25896I-182J354*
G01*
X28702Y25896D01*
X28702Y26104D01*
G74*
D01*
G03X28304Y26502I398J0*
G01*
X28304Y26502D01*
X28096Y26502D01*
G75*
D01*
G03X27699Y26133I0J-398*
G01*
G75*
D01*
G03X26700Y26130I-499J-131*
G01*
G75*
D01*
G03X25700Y26130I-500J-127*
G01*
G75*
D01*
G03X24700Y26130I-500J-127*
G01*
G75*
D01*
G03X23700Y26130I-500J-127*
G01*
G75*
D01*
G03X22700Y26130I-500J-127*
G01*
G75*
D01*
G03X21700Y26130I-500J-127*
G01*
G75*
D01*
G03X20700Y26130I-500J-127*
G01*
G75*
D01*
G03X19700Y26130I-500J-127*
G01*
G75*
D01*
G03X18700Y26130I-500J-127*
G01*
G75*
D01*
G03X17700Y26130I-500J-127*
G01*
G75*
D01*
G03X16700Y26130I-500J-127*
G01*
G75*
D01*
G03X15700Y26130I-500J-127*
G01*
G75*
D01*
G03X14914Y25570I-499J-131*
G01*
X14914Y25570D01*
X14914Y23341D01*
G75*
D01*
G03X15486Y23341I286J-341*
G01*
X15486Y23341D01*
X15486Y25570D01*
G74*
D01*
G03X15700Y25870I285J430*
G01*
G74*
D01*
G03X15914Y25570I499J130*
G01*
X15914Y25570D01*
X15914Y23341D01*
G75*
D01*
G03X16486Y23341I286J-341*
G01*
X16486Y23341D01*
X16486Y25570D01*
G74*
D01*
G03X16700Y25870I285J430*
G01*
G74*
D01*
G03X16914Y25570I499J130*
G01*
X16914Y25570D01*
X16914Y23341D01*
G75*
D01*
G03X17486Y23341I286J-341*
G01*
X17486Y23341D01*
X17486Y25570D01*
G74*
D01*
G03X17700Y25870I285J430*
G01*
G74*
D01*
G03X17914Y25570I499J130*
G01*
X17914Y25570D01*
X17914Y23341D01*
G75*
D01*
G03X18486Y23341I286J-341*
G01*
X18486Y23341D01*
X18486Y25570D01*
G74*
D01*
G03X18700Y25870I285J430*
G01*
G74*
D01*
G03X18914Y25570I499J130*
G01*
X18914Y25570D01*
X18914Y23341D01*
G75*
D01*
G03X19486Y23341I286J-341*
G01*
X19486Y23341D01*
X19486Y25570D01*
G74*
D01*
G03X19700Y25870I285J430*
G01*
G74*
D01*
G03X19914Y25570I499J130*
G01*
X19914Y25570D01*
X19914Y23341D01*
G75*
D01*
G03X20486Y23341I286J-341*
G01*
X20486Y23341D01*
X20486Y25570D01*
G74*
D01*
G03X20700Y25870I285J430*
G01*
G75*
D01*
G03X21700Y25870I500J127*
G01*
G74*
D01*
G03X21914Y25570I499J130*
G01*
X21914Y25570D01*
X21914Y23341D01*
G75*
D01*
G03X22486Y23341I286J-341*
G01*
X22486Y23341D01*
X22486Y25570D01*
G74*
D01*
G03X22700Y25870I285J430*
G01*
G75*
D01*
G03X23700Y25870I500J127*
G01*
G75*
D01*
G03X24700Y25870I500J127*
G01*
G74*
D01*
G03X24914Y25570I499J130*
G01*
X24914Y25570D01*
X24914Y23341D01*
G75*
D01*
G03X24800Y22805I286J-341*
G01*
X24800Y22805D01*
X24643Y22962D01*
G75*
D01*
G03X24238Y22557I-442J37*
G01*
X24238Y22557D01*
X24897Y21897D01*
G74*
D01*
G03X25081Y21814I202J203*
G01*
G75*
D01*
G03X25100Y21814I10J286*
G01*
X25100Y21814D01*
X28900Y21814D01*
G75*
D01*
G03X28926Y21815I2J286*
G01*
G74*
D01*
G03X29103Y21898I26J285*
G01*
X29103Y21898D01*
X29802Y22597D01*
G75*
D01*
G03X29886Y22800I-202J202*
G01*
D02*
G37*
G36*
X37517Y24983D02*
X37517Y24983D01*
X37817Y24983D01*
X37817Y25283D01*
G74*
D01*
G03X37517Y24983I183J483*
G01*
D02*
G37*
G36*
X37517Y24617D02*
G74*
D01*
G03X37817Y24317I483J183*
G01*
X37817Y24317D01*
X37817Y24617D01*
X37517Y24617D01*
D02*
G37*
G36*
X37483Y17183D02*
X37483Y17183D01*
X37483Y16883D01*
X37783Y16883D01*
G74*
D01*
G03X37483Y17183I483J183*
G01*
D02*
G37*
G36*
X37483Y16217D02*
G74*
D01*
G03X37783Y16517I183J483*
G01*
X37783Y16517D01*
X37483Y16517D01*
X37483Y16217D01*
D02*
G37*
G36*
X29885Y21198D02*
X29885Y21198D01*
X30234Y21547D01*
X30234Y21547D01*
X30917Y22230D01*
G75*
D01*
G03X31391Y22414I83J488*
G01*
X31391Y22414D01*
X32581Y22414D01*
X33106Y21889D01*
G75*
D01*
G03X33511Y22294I493J-88*
G01*
X33511Y22294D01*
X32903Y22902D01*
G74*
D01*
G03X32804Y22967I203J201*
G01*
G75*
D01*
G03X32700Y22986I-103J-267*
G01*
X32700Y22986D01*
X31416Y22986D01*
G74*
D01*
G03X31286Y23122I416J267*
G01*
X31286Y23122D01*
X31286Y23970D01*
G75*
D01*
G03X30714Y23970I-286J429*
G01*
X30714Y23970D01*
X30714Y23122D01*
G75*
D01*
G03X30512Y22635I285J-404*
G01*
X30512Y22635D01*
X29563Y21686D01*
X23486Y21686D01*
X23486Y22659D01*
G75*
D01*
G03X22914Y22659I-286J341*
G01*
X22914Y22659D01*
X22914Y19119D01*
X21238Y17443D01*
G75*
D01*
G03X21643Y17038I-37J-442*
G01*
X21643Y17038D01*
X21800Y17195D01*
G74*
D01*
G03X21784Y17158I400J195*
G01*
X21784Y17158D01*
X22042Y17158D01*
X22042Y17416D01*
G74*
D01*
G03X22005Y17400I158J415*
G01*
X22005Y17400D01*
X23402Y18797D01*
G75*
D01*
G03X23486Y19000I-202J202*
G01*
X23486Y19000D01*
X23486Y21114D01*
X29682Y21114D01*
G75*
D01*
G03X29754Y21123I1J286*
G01*
G74*
D01*
G03X29885Y21198I72J277*
G01*
D02*
G37*
G36*
X13010Y21785D02*
X13010Y21785D01*
X12826Y21600D01*
X12878Y21547D01*
X13010Y21415D01*
G75*
D01*
G03X13010Y21785I-409J185*
G01*
D02*
G37*
G36*
X12767Y21547D02*
G75*
D01*
G03X12767Y21547I-167J53*
G01*
D02*
G37*
G36*
X37825Y24800D02*
G75*
D01*
G03X37825Y24800I175J0*
G01*
D02*
G37*
G36*
X21042Y22584D02*
X21042Y22584D01*
X21042Y22842D01*
X20784Y22842D01*
G74*
D01*
G03X21042Y22584I415J157*
G01*
D02*
G37*
G36*
X21025Y23000D02*
G75*
D01*
G03X21025Y23000I175J0*
G01*
D02*
G37*
G36*
X21616Y22842D02*
X21616Y22842D01*
X21358Y22842D01*
X21358Y22584D01*
G74*
D01*
G03X21616Y22842I157J415*
G01*
D02*
G37*
G36*
X20784Y23158D02*
X20784Y23158D01*
X21042Y23158D01*
X21042Y23416D01*
G74*
D01*
G03X20784Y23158I157J415*
G01*
D02*
G37*
G36*
X21358Y23416D02*
X21358Y23416D01*
X21358Y23158D01*
X21616Y23158D01*
G74*
D01*
G03X21358Y23416I415J157*
G01*
D02*
G37*
G36*
X30505Y25222D02*
G74*
D01*
G03X30822Y24905I390J73*
G01*
X30822Y24905D01*
X30822Y25222D01*
X30505Y25222D01*
D02*
G37*
G36*
X31178Y24905D02*
G74*
D01*
G03X31495Y25222I73J390*
G01*
X31495Y25222D01*
X31178Y25222D01*
X31178Y24905D01*
D02*
G37*
G36*
X30822Y25895D02*
G74*
D01*
G03X30505Y25578I73J390*
G01*
X30505Y25578D01*
X30822Y25578D01*
X30822Y25895D01*
D02*
G37*
G36*
X31495Y25578D02*
G74*
D01*
G03X31178Y25895I390J73*
G01*
X31178Y25895D01*
X31178Y25578D01*
X31495Y25578D01*
D02*
G37*
G36*
X30804Y25400D02*
G75*
D01*
G03X30804Y25400I196J0*
G01*
D02*
G37*
G36*
X12415Y22010D02*
X12415Y22010D01*
X12600Y21826D01*
X12785Y22010D01*
G75*
D01*
G03X12415Y22010I-185J-409*
G01*
D02*
G37*
G36*
X11498Y23800D02*
G75*
D01*
G03X11498Y23800I502J0*
G01*
D02*
G37*
G36*
X11822Y24330D02*
X11822Y24330D01*
X11822Y24622D01*
X11530Y24622D01*
G74*
D01*
G03X11822Y24330I470J178*
G01*
D02*
G37*
G36*
X12470Y24622D02*
X12470Y24622D01*
X12178Y24622D01*
X12178Y24330D01*
G74*
D01*
G03X12470Y24622I178J470*
G01*
D02*
G37*
G36*
X11530Y24978D02*
X11530Y24978D01*
X11822Y24978D01*
X11822Y25270D01*
G74*
D01*
G03X11530Y24978I178J470*
G01*
D02*
G37*
G36*
X11768Y24800D02*
G75*
D01*
G03X11768Y24800I232J0*
G01*
D02*
G37*
G36*
X12178Y25270D02*
X12178Y25270D01*
X12178Y24978D01*
X12470Y24978D01*
G74*
D01*
G03X12178Y25270I470J178*
G01*
D02*
G37*
G36*
X22025Y17000D02*
G75*
D01*
G03X22025Y17000I175J0*
G01*
D02*
G37*
G36*
X22616Y16842D02*
X22616Y16842D01*
X22358Y16842D01*
X22358Y16584D01*
G74*
D01*
G03X22616Y16842I157J415*
G01*
D02*
G37*
G36*
X22358Y17416D02*
X22358Y17416D01*
X22358Y17158D01*
X22616Y17158D01*
G74*
D01*
G03X22358Y17416I415J157*
G01*
D02*
G37*
G36*
X22042Y16584D02*
X22042Y16584D01*
X22042Y16842D01*
X21784Y16842D01*
G74*
D01*
G03X22042Y16584I415J157*
G01*
D02*
G37*
G36*
X34070Y20622D02*
X34070Y20622D01*
X33778Y20622D01*
X33778Y20330D01*
G74*
D01*
G03X34070Y20622I178J470*
G01*
D02*
G37*
G36*
X33422Y20330D02*
X33422Y20330D01*
X33422Y20622D01*
X33130Y20622D01*
G74*
D01*
G03X33422Y20330I470J178*
G01*
D02*
G37*
G36*
X33130Y20978D02*
X33130Y20978D01*
X33422Y20978D01*
X33422Y21270D01*
G74*
D01*
G03X33130Y20978I178J470*
G01*
D02*
G37*
G36*
X33778Y21270D02*
X33778Y21270D01*
X33778Y20978D01*
X34070Y20978D01*
G74*
D01*
G03X33778Y21270I470J178*
G01*
D02*
G37*
G36*
X33368Y20800D02*
G75*
D01*
G03X33368Y20800I232J0*
G01*
D02*
G37*
G36*
X35383Y17483D02*
X35383Y17483D01*
X35383Y17183D01*
X35683Y17183D01*
G74*
D01*
G03X35383Y17483I483J183*
G01*
D02*
G37*
G36*
X36817Y16883D02*
X36817Y16883D01*
X37117Y16883D01*
X37117Y17183D01*
G74*
D01*
G03X36817Y16883I183J483*
G01*
D02*
G37*
G36*
X35025Y17000D02*
G75*
D01*
G03X35025Y17000I175J0*
G01*
D02*
G37*
G36*
X37125Y16700D02*
G75*
D01*
G03X37125Y16700I175J0*
G01*
D02*
G37*
G36*
X37117Y16217D02*
X37117Y16217D01*
X37117Y16517D01*
X36817Y16517D01*
G74*
D01*
G03X37117Y16217I483J183*
G01*
D02*
G37*
G36*
X34717Y15983D02*
X34717Y15983D01*
X35017Y15983D01*
X35017Y16283D01*
G74*
D01*
G03X34717Y15983I183J483*
G01*
D02*
G37*
G36*
X35017Y16517D02*
X35017Y16517D01*
X35017Y16817D01*
X34717Y16817D01*
G74*
D01*
G03X35017Y16517I483J183*
G01*
D02*
G37*
G36*
X35683Y16817D02*
X35683Y16817D01*
X35383Y16817D01*
X35383Y16517D01*
G74*
D01*
G03X35683Y16817I183J483*
G01*
D02*
G37*
G36*
X35383Y16283D02*
X35383Y16283D01*
X35383Y15983D01*
X35683Y15983D01*
G74*
D01*
G03X35383Y16283I483J183*
G01*
D02*
G37*
G36*
X35017Y15317D02*
X35017Y15317D01*
X35017Y15617D01*
X34717Y15617D01*
G74*
D01*
G03X35017Y15317I483J183*
G01*
D02*
G37*
G36*
X35025Y15800D02*
G75*
D01*
G03X35025Y15800I175J0*
G01*
D02*
G37*
G36*
X35683Y15617D02*
X35683Y15617D01*
X35383Y15617D01*
X35383Y15317D01*
G74*
D01*
G03X35683Y15617I183J483*
G01*
D02*
G37*
%LPD*%
G36*
X11643Y21152D02*
X11643Y21152D01*
X14914Y17881D01*
X14914Y17341D01*
G75*
D01*
G03X14757Y16962I286J-341*
G01*
X14757Y16962D01*
X14235Y16440D01*
G75*
D01*
G03X14151Y16237I201J-202*
G01*
X14151Y16237D01*
X14151Y13380D01*
G75*
D01*
G03X14235Y13177I286J-1*
G01*
X14235Y13177D01*
X14284Y13128D01*
X14244Y13128D01*
X11257Y16115D01*
X11257Y18309D01*
G75*
D01*
G03X11257Y18891I342J291*
G01*
X11257Y18891D01*
X11257Y21309D01*
G75*
D01*
G03X11643Y21152I343J290*
G01*
D02*
G37*
%LPC*%
G36*
X12150Y18600D02*
G75*
D01*
G03X12150Y18600I450J0*
G01*
D02*
G37*
%LPD*%
G36*
X16700Y13870D02*
G74*
D01*
G03X16972Y13536I500J129*
G01*
X16972Y13536D01*
X16428Y13536D01*
G74*
D01*
G03X16700Y13870I228J463*
G01*
D02*
G37*
G36*
X17700Y13870D02*
G74*
D01*
G03X17972Y13536I500J129*
G01*
X17972Y13536D01*
X17428Y13536D01*
G74*
D01*
G03X17700Y13870I228J463*
G01*
D02*
G37*
G36*
X18972Y13536D02*
X18972Y13536D01*
X18428Y13536D01*
G74*
D01*
G03X18700Y13870I228J463*
G01*
G74*
D01*
G03X18972Y13536I500J129*
G01*
D02*
G37*
G36*
X19700Y13870D02*
G74*
D01*
G03X19972Y13536I500J129*
G01*
X19972Y13536D01*
X19428Y13536D01*
G74*
D01*
G03X19700Y13870I228J463*
G01*
D02*
G37*
G36*
X20700Y13870D02*
G74*
D01*
G03X20972Y13536I500J129*
G01*
X20972Y13536D01*
X20428Y13536D01*
G74*
D01*
G03X20700Y13870I228J463*
G01*
D02*
G37*
G36*
X21700Y13870D02*
G74*
D01*
G03X21972Y13536I500J129*
G01*
X21972Y13536D01*
X21428Y13536D01*
G74*
D01*
G03X21700Y13870I228J463*
G01*
D02*
G37*
G36*
X22972Y13536D02*
X22972Y13536D01*
X22428Y13536D01*
G74*
D01*
G03X22700Y13870I228J463*
G01*
G74*
D01*
G03X22972Y13536I500J129*
G01*
D02*
G37*
G36*
X23700Y13870D02*
G74*
D01*
G03X23972Y13536I500J129*
G01*
X23972Y13536D01*
X23428Y13536D01*
G74*
D01*
G03X23700Y13870I228J463*
G01*
D02*
G37*
G36*
X24428Y13536D02*
G74*
D01*
G03X24700Y13870I228J463*
G01*
G74*
D01*
G03X24972Y13536I500J129*
G01*
X24972Y13536D01*
X24428Y13536D01*
D02*
G37*
G36*
X25972Y13536D02*
X25972Y13536D01*
X25428Y13536D01*
G74*
D01*
G03X25700Y13870I228J463*
G01*
G74*
D01*
G03X25972Y13536I500J129*
G01*
D02*
G37*
G36*
X26972Y13536D02*
X26972Y13536D01*
X26428Y13536D01*
G74*
D01*
G03X26700Y13870I228J463*
G01*
G74*
D01*
G03X26972Y13536I500J129*
G01*
D02*
G37*
G36*
X27700Y13870D02*
G74*
D01*
G03X27972Y13536I500J129*
G01*
X27972Y13536D01*
X27428Y13536D01*
G74*
D01*
G03X27700Y13870I228J463*
G01*
D02*
G37*
G36*
X15701Y13867D02*
G74*
D01*
G03X15972Y13536I499J132*
G01*
X15972Y13536D01*
X15474Y13536D01*
G74*
D01*
G03X15701Y13867I170J360*
G01*
D02*
G37*
G36*
X14926Y13536D02*
X14926Y13536D01*
X14724Y13536D01*
X14724Y13755D01*
G74*
D01*
G03X14926Y13536I371J140*
G01*
D02*
G37*
G36*
X11950Y26300D02*
G74*
D01*
G03X11897Y26292I48J500*
G01*
X11897Y26292D01*
X11911Y26306D01*
G74*
D01*
G03X11950Y26300I96J492*
G01*
D02*
G37*
G54D11*
X36903Y20002D02*
G74*
D01*
G03X36700Y20086I202J202*
G01*
X34103Y20086D01*
X34103Y20102D01*
G74*
D01*
G03X33902Y20303I201J0*
G01*
X33298Y20303D01*
G75*
D01*
G03X33097Y20102I0J-201*
G01*
X33097Y19498D01*
G75*
D01*
G03X33298Y19297I201J0*
G01*
X33902Y19297D01*
G75*
D01*
G03X34103Y19498I0J201*
G01*
X34103Y19514D01*
X36581Y19514D01*
X37745Y18350D01*
X37914Y18181D01*
X37914Y17986D01*
X37758Y17986D01*
G74*
D01*
G03X37404Y18202I354J182*
G01*
X37196Y18202D01*
G75*
D01*
G03X36798Y17804I0J-398*
G01*
X36798Y17596D01*
G75*
D01*
G03X37196Y17198I398J0*
G01*
X37404Y17198D01*
G74*
D01*
G03X37758Y17414I0J398*
G01*
X37914Y17414D01*
X37914Y13698D01*
X37745Y13529D01*
X37344Y13128D01*
X29654Y13128D01*
X29702Y13177D01*
G75*
D01*
G03X29786Y13379I-201J202*
G01*
X29786Y16781D01*
X30319Y17314D01*
X30596Y17314D01*
G75*
D01*
G03X30596Y17886I403J286*
G01*
X30200Y17886D01*
G75*
D01*
G03X29997Y17803I-2J-286*
G01*
X29297Y17103D01*
G75*
D01*
G03X29214Y16900I204J-202*
G01*
X29214Y13536D01*
X28428Y13536D01*
G75*
D01*
G03X28486Y14430I-227J464*
G01*
X28486Y16659D01*
G75*
D01*
G03X27914Y16659I-286J341*
G01*
X27914Y14430D01*
G74*
D01*
G03X27700Y14130I285J430*
G01*
G74*
D01*
G03X27486Y14430I499J130*
G01*
X27486Y16659D01*
G75*
D01*
G03X26914Y16659I-286J341*
G01*
X26914Y14430D01*
G74*
D01*
G03X26700Y14130I285J430*
G01*
G74*
D01*
G03X26486Y14430I499J130*
G01*
X26486Y16659D01*
G75*
D01*
G03X25914Y16659I-286J341*
G01*
X25914Y14430D01*
G74*
D01*
G03X25700Y14130I285J430*
G01*
G74*
D01*
G03X25486Y14430I499J130*
G01*
X25486Y16659D01*
G75*
D01*
G03X25331Y17425I-286J341*
G01*
X25402Y17496D01*
G74*
D01*
G03X25418Y17513I200J204*
G01*
X26164Y18259D01*
X31352Y18259D01*
X31614Y17997D01*
X31614Y16400D01*
G75*
D01*
G03X31697Y16197I286J-2*
G01*
X32954Y14941D01*
G75*
D01*
G03X33657Y14514I445J-59*
G01*
X34742Y14514D01*
G75*
D01*
G03X35096Y14298I354J182*
G01*
X35304Y14298D01*
G75*
D01*
G03X35702Y14696I0J398*
G01*
X35702Y14904D01*
G74*
D01*
G03X35304Y15302I398J0*
G01*
X35096Y15302D01*
G75*
D01*
G03X34742Y15086I0J-398*
G01*
X33802Y15086D01*
G75*
D01*
G03X33373Y15332I-402J-203*
G01*
X32186Y16519D01*
X32186Y18116D01*
G74*
D01*
G03X32102Y18319I286J1*
G01*
X31673Y18747D01*
G74*
D01*
G03X31571Y18814I204J199*
G01*
G75*
D01*
G03X31470Y18832I-100J-268*
G01*
X26045Y18832D01*
G75*
D01*
G03X26001Y18828I4J-287*
G01*
G74*
D01*
G03X25843Y18748I44J283*
G01*
X24997Y17903D01*
G74*
D01*
G03X24982Y17885I213J193*
G01*
X24486Y17390D01*
X24486Y18531D01*
X25269Y19314D01*
X31381Y19314D01*
X33114Y17581D01*
X33114Y17147D01*
G75*
D01*
G03X33686Y17147I286J-346*
G01*
X33686Y17414D01*
X34890Y17414D01*
G74*
D01*
G03X34717Y17183I311J413*
G01*
X35017Y17183D01*
X35017Y17439D01*
G74*
D01*
G03X35103Y17498I116J261*
G01*
X35103Y17498D01*
X35304Y17498D01*
G75*
D01*
G03X35702Y17896I0J398*
G01*
X35702Y18104D01*
G74*
D01*
G03X35304Y18502I398J0*
G01*
X35096Y18502D01*
G75*
D01*
G03X34698Y18104I0J-398*
G01*
X34698Y17986D01*
X33519Y17986D01*
X31703Y19802D01*
G74*
D01*
G03X31588Y19873I203J201*
G01*
G75*
D01*
G03X31500Y19886I-85J-273*
G01*
X25150Y19886D01*
G75*
D01*
G03X25063Y19873I-2J-286*
G01*
G74*
D01*
G03X24947Y19803I86J273*
G01*
X23997Y18853D01*
G75*
D01*
G03X23914Y18649I204J-202*
G01*
X23914Y17341D01*
G75*
D01*
G03X24401Y16603I286J-341*
G01*
X24401Y15432D01*
X24171Y15202D01*
X23666Y15202D01*
X23486Y15382D01*
X23486Y16659D01*
G75*
D01*
G03X22914Y16659I-286J341*
G01*
X22914Y15264D01*
G75*
D01*
G03X22997Y15061I286J-2*
G01*
X23345Y14713D01*
X23345Y14713D01*
G75*
D01*
G03X23548Y14629I202J202*
G01*
X24289Y14629D01*
G75*
D01*
G03X24356Y14637I0J286*
G01*
G74*
D01*
G03X24492Y14713I66J277*
G01*
X24889Y15110D01*
G74*
D01*
G03X24914Y15138I200J204*
G01*
X24914Y14430D01*
G74*
D01*
G03X24700Y14130I285J430*
G01*
G75*
D01*
G03X23700Y14130I-500J-127*
G01*
G75*
D01*
G03X22700Y14130I-500J-127*
G01*
G75*
D01*
G03X21700Y14130I-500J-127*
G01*
G75*
D01*
G03X20700Y14130I-500J-127*
G01*
G74*
D01*
G03X20486Y14430I499J130*
G01*
X20486Y16659D01*
G75*
D01*
G03X19914Y16659I-286J341*
G01*
X19914Y14430D01*
G74*
D01*
G03X19700Y14130I285J430*
G01*
G74*
D01*
G03X19486Y14430I499J130*
G01*
X19486Y16659D01*
G75*
D01*
G03X18914Y16659I-286J341*
G01*
X18914Y14430D01*
G74*
D01*
G03X18700Y14130I285J430*
G01*
G74*
D01*
G03X18486Y14430I499J130*
G01*
X18486Y16659D01*
G75*
D01*
G03X17914Y16659I-286J341*
G01*
X17914Y14430D01*
G74*
D01*
G03X17700Y14130I285J430*
G01*
G74*
D01*
G03X17486Y14430I499J130*
G01*
X17486Y16659D01*
G75*
D01*
G03X16914Y16659I-286J341*
G01*
X16914Y14430D01*
G74*
D01*
G03X16700Y14130I285J430*
G01*
G74*
D01*
G03X16486Y14430I499J130*
G01*
X16486Y16659D01*
G75*
D01*
G03X15914Y16659I-286J341*
G01*
X15914Y14430D01*
G74*
D01*
G03X15701Y14133I286J430*
G01*
G74*
D01*
G03X15304Y14502I397J29*
G01*
X15096Y14502D01*
G75*
D01*
G03X14724Y14245I0J-398*
G01*
X14724Y16119D01*
X15162Y16557D01*
G75*
D01*
G03X15486Y17341I41J442*
G01*
X15486Y18000D01*
G74*
D01*
G03X15402Y18203I286J1*
G01*
X12415Y21190D01*
G75*
D01*
G03X12785Y21190I185J409*
G01*
X12600Y21374D01*
X12415Y21190D01*
X12190Y21415D01*
X12322Y21547D01*
X12374Y21600D01*
X12190Y21785D01*
G75*
D01*
G03X12190Y21415I409J-185*
G01*
X12058Y21547D01*
X12058Y21547D01*
X12048Y21557D01*
G75*
D01*
G03X11257Y21891I-448J43*
G01*
X11257Y25652D01*
X11508Y25903D01*
G75*
D01*
G03X12050Y26300I491J-102*
G01*
G75*
D01*
G03X11506Y26711I-50J500*
G01*
X10768Y25973D01*
G74*
D01*
G03X10685Y25790I202J202*
G01*
G75*
D01*
G03X10684Y25771I285J-25*
G01*
X10684Y21547D01*
X10684Y21547D01*
X10684Y15997D01*
G75*
D01*
G03X10768Y15794I287J0*
G01*
X13923Y12639D01*
G74*
D01*
G03X14030Y12572I202J204*
G01*
G75*
D01*
G03X14126Y12555I97J269*
G01*
X37462Y12555D01*
G74*
D01*
G03X37665Y12639I0J287*
G01*
X38402Y13377D01*
G75*
D01*
G03X38486Y13579I-201J202*
G01*
X38486Y18300D01*
G74*
D01*
G03X38402Y18503I286J1*
G01*
X37745Y19160D01*
X37745Y19160D01*
X36903Y20002D01*
X38102Y25293D02*
X38183Y25212D01*
X38183Y24983D01*
X38412Y24983D01*
X38580Y24815D01*
X38382Y24617D01*
X38183Y24617D01*
X38183Y24418D01*
X37952Y24186D01*
X36889Y24186D01*
G75*
D01*
G03X36686Y24103I-2J-286*
G01*
X35483Y22900D01*
G75*
D01*
G03X35888Y22495I-83J-488*
G01*
X37007Y23614D01*
X38071Y23614D01*
G74*
D01*
G03X38273Y23698I0J286*
G01*
X39102Y24527D01*
G75*
D01*
G03X39186Y24729I-201J202*
G01*
X39186Y24900D01*
G74*
D01*
G03X39102Y25103I286J1*
G01*
X38507Y25698D01*
G75*
D01*
G03X38102Y25293I-507J102*
G01*
X29886Y22800D02*
X29886Y26614D01*
X39111Y26614D01*
X40232Y25493D01*
X40232Y22816D01*
G75*
D01*
G03X40804Y22816I286J-403*
G01*
X40804Y25612D01*
G74*
D01*
G03X40720Y25815I286J1*
G01*
X39433Y27102D01*
G74*
D01*
G03X39313Y27174I203J202*
G01*
G75*
D01*
G03X39230Y27186I-82J-274*
G01*
X29700Y27186D01*
G75*
D01*
G03X29677Y27185I1J-286*
G01*
G74*
D01*
G03X29497Y27103I21J284*
G01*
X29397Y27003D01*
G75*
D01*
G03X29314Y26799I204J-202*
G01*
X29314Y22919D01*
X28781Y22386D01*
X25219Y22386D01*
X25005Y22600D01*
G75*
D01*
G03X25486Y23341I195J400*
G01*
X25486Y25570D01*
G74*
D01*
G03X25700Y25870I285J430*
G01*
G74*
D01*
G03X25914Y25570I499J130*
G01*
X25914Y23341D01*
G75*
D01*
G03X26486Y23341I286J-341*
G01*
X26486Y25570D01*
G74*
D01*
G03X26700Y25870I285J430*
G01*
G74*
D01*
G03X26914Y25570I499J130*
G01*
X26914Y23341D01*
G75*
D01*
G03X27486Y23341I286J-341*
G01*
X27486Y25570D01*
G74*
D01*
G03X27699Y25867I286J430*
G01*
G74*
D01*
G03X27914Y25542I397J29*
G01*
X27914Y23341D01*
G75*
D01*
G03X28486Y23341I286J-341*
G01*
X28486Y25542D01*
G75*
D01*
G03X28702Y25896I-182J354*
G01*
X28702Y26104D01*
G74*
D01*
G03X28304Y26502I398J0*
G01*
X28096Y26502D01*
G75*
D01*
G03X27699Y26133I0J-398*
G01*
G75*
D01*
G03X26700Y26130I-499J-131*
G01*
G75*
D01*
G03X25700Y26130I-500J-127*
G01*
G75*
D01*
G03X24700Y26130I-500J-127*
G01*
G75*
D01*
G03X23700Y26130I-500J-127*
G01*
G75*
D01*
G03X22700Y26130I-500J-127*
G01*
G75*
D01*
G03X21700Y26130I-500J-127*
G01*
G75*
D01*
G03X20700Y26130I-500J-127*
G01*
G75*
D01*
G03X19700Y26130I-500J-127*
G01*
G75*
D01*
G03X18700Y26130I-500J-127*
G01*
G75*
D01*
G03X17700Y26130I-500J-127*
G01*
G75*
D01*
G03X16700Y26130I-500J-127*
G01*
G75*
D01*
G03X15700Y26130I-500J-127*
G01*
G75*
D01*
G03X14914Y25570I-499J-131*
G01*
X14914Y23341D01*
G75*
D01*
G03X15486Y23341I286J-341*
G01*
X15486Y25570D01*
G74*
D01*
G03X15700Y25870I285J430*
G01*
G74*
D01*
G03X15914Y25570I499J130*
G01*
X15914Y23341D01*
G75*
D01*
G03X16486Y23341I286J-341*
G01*
X16486Y25570D01*
G74*
D01*
G03X16700Y25870I285J430*
G01*
G74*
D01*
G03X16914Y25570I499J130*
G01*
X16914Y23341D01*
G75*
D01*
G03X17486Y23341I286J-341*
G01*
X17486Y25570D01*
G74*
D01*
G03X17700Y25870I285J430*
G01*
G74*
D01*
G03X17914Y25570I499J130*
G01*
X17914Y23341D01*
G75*
D01*
G03X18486Y23341I286J-341*
G01*
X18486Y25570D01*
G74*
D01*
G03X18700Y25870I285J430*
G01*
G74*
D01*
G03X18914Y25570I499J130*
G01*
X18914Y23341D01*
G75*
D01*
G03X19486Y23341I286J-341*
G01*
X19486Y25570D01*
G74*
D01*
G03X19700Y25870I285J430*
G01*
G74*
D01*
G03X19914Y25570I499J130*
G01*
X19914Y23341D01*
G75*
D01*
G03X20486Y23341I286J-341*
G01*
X20486Y25570D01*
G74*
D01*
G03X20700Y25870I285J430*
G01*
G75*
D01*
G03X21700Y25870I500J127*
G01*
G74*
D01*
G03X21914Y25570I499J130*
G01*
X21914Y23341D01*
G75*
D01*
G03X22486Y23341I286J-341*
G01*
X22486Y25570D01*
G74*
D01*
G03X22700Y25870I285J430*
G01*
G75*
D01*
G03X23700Y25870I500J127*
G01*
G75*
D01*
G03X24700Y25870I500J127*
G01*
G74*
D01*
G03X24914Y25570I499J130*
G01*
X24914Y23341D01*
G75*
D01*
G03X24800Y22805I286J-341*
G01*
X24643Y22962D01*
G75*
D01*
G03X24238Y22557I-442J37*
G01*
X24897Y21897D01*
G74*
D01*
G03X25081Y21814I202J203*
G01*
G75*
D01*
G03X25100Y21814I10J286*
G01*
X28900Y21814D01*
G75*
D01*
G03X28926Y21815I2J286*
G01*
G74*
D01*
G03X29103Y21898I26J285*
G01*
X29802Y22597D01*
G75*
D01*
G03X29886Y22800I-202J202*
G01*
X37517Y24983D02*
X37817Y24983D01*
X37817Y25283D01*
G74*
D01*
G03X37517Y24983I183J483*
G01*
X37517Y24617D02*
G74*
D01*
G03X37817Y24317I483J183*
G01*
X37817Y24617D01*
X37517Y24617D01*
X37483Y17183D02*
X37483Y16883D01*
X37783Y16883D01*
G74*
D01*
G03X37483Y17183I483J183*
G01*
X37483Y16217D02*
G74*
D01*
G03X37783Y16517I183J483*
G01*
X37483Y16517D01*
X37483Y16217D01*
X29885Y21198D02*
X30234Y21547D01*
X30234Y21547D01*
X30917Y22230D01*
G75*
D01*
G03X31391Y22414I83J488*
G01*
X32581Y22414D01*
X33106Y21889D01*
G75*
D01*
G03X33511Y22294I493J-88*
G01*
X32903Y22902D01*
G74*
D01*
G03X32804Y22967I203J201*
G01*
G75*
D01*
G03X32700Y22986I-103J-267*
G01*
X31416Y22986D01*
G74*
D01*
G03X31286Y23122I416J267*
G01*
X31286Y23970D01*
G75*
D01*
G03X30714Y23970I-286J429*
G01*
X30714Y23122D01*
G75*
D01*
G03X30512Y22635I285J-404*
G01*
X29563Y21686D01*
X23486Y21686D01*
X23486Y22659D01*
G75*
D01*
G03X22914Y22659I-286J341*
G01*
X22914Y19119D01*
X21238Y17443D01*
G75*
D01*
G03X21643Y17038I-37J-442*
G01*
X21800Y17195D01*
G74*
D01*
G03X21784Y17158I400J195*
G01*
X22042Y17158D01*
X22042Y17416D01*
G74*
D01*
G03X22005Y17400I158J415*
G01*
X23402Y18797D01*
G75*
D01*
G03X23486Y19000I-202J202*
G01*
X23486Y21114D01*
X29682Y21114D01*
G75*
D01*
G03X29754Y21123I1J286*
G01*
G74*
D01*
G03X29885Y21198I72J277*
G01*
X13010Y21785D02*
X12826Y21600D01*
X12878Y21547D01*
X13010Y21415D01*
G75*
D01*
G03X13010Y21785I-409J185*
G01*
X12767Y21547D02*
G75*
D01*
G03X12767Y21547I-167J53*
G01*
X37825Y24800D02*
G75*
D01*
G03X37825Y24800I175J0*
G01*
X21042Y22584D02*
X21042Y22842D01*
X20784Y22842D01*
G74*
D01*
G03X21042Y22584I415J157*
G01*
X21025Y23000D02*
G75*
D01*
G03X21025Y23000I175J0*
G01*
X21616Y22842D02*
X21358Y22842D01*
X21358Y22584D01*
G74*
D01*
G03X21616Y22842I157J415*
G01*
X20784Y23158D02*
X21042Y23158D01*
X21042Y23416D01*
G74*
D01*
G03X20784Y23158I157J415*
G01*
X21358Y23416D02*
X21358Y23158D01*
X21616Y23158D01*
G74*
D01*
G03X21358Y23416I415J157*
G01*
X30505Y25222D02*
G74*
D01*
G03X30822Y24905I390J73*
G01*
X30822Y25222D01*
X30505Y25222D01*
X31178Y24905D02*
G74*
D01*
G03X31495Y25222I73J390*
G01*
X31178Y25222D01*
X31178Y24905D01*
X30822Y25895D02*
G74*
D01*
G03X30505Y25578I73J390*
G01*
X30822Y25578D01*
X30822Y25895D01*
X31495Y25578D02*
G74*
D01*
G03X31178Y25895I390J73*
G01*
X31178Y25578D01*
X31495Y25578D01*
X30804Y25400D02*
G75*
D01*
G03X30804Y25400I196J0*
G01*
X12415Y22010D02*
X12600Y21826D01*
X12785Y22010D01*
G75*
D01*
G03X12415Y22010I-185J-409*
G01*
X11498Y23800D02*
G75*
D01*
G03X11498Y23800I502J0*
G01*
X11822Y24330D02*
X11822Y24622D01*
X11530Y24622D01*
G74*
D01*
G03X11822Y24330I470J178*
G01*
X12470Y24622D02*
X12178Y24622D01*
X12178Y24330D01*
G74*
D01*
G03X12470Y24622I178J470*
G01*
X11530Y24978D02*
X11822Y24978D01*
X11822Y25270D01*
G74*
D01*
G03X11530Y24978I178J470*
G01*
X11768Y24800D02*
G75*
D01*
G03X11768Y24800I232J0*
G01*
X12178Y25270D02*
X12178Y24978D01*
X12470Y24978D01*
G74*
D01*
G03X12178Y25270I470J178*
G01*
X22025Y17000D02*
G75*
D01*
G03X22025Y17000I175J0*
G01*
X22616Y16842D02*
X22358Y16842D01*
X22358Y16584D01*
G74*
D01*
G03X22616Y16842I157J415*
G01*
X22358Y17416D02*
X22358Y17158D01*
X22616Y17158D01*
G74*
D01*
G03X22358Y17416I415J157*
G01*
X22042Y16584D02*
X22042Y16842D01*
X21784Y16842D01*
G74*
D01*
G03X22042Y16584I415J157*
G01*
X34070Y20622D02*
X33778Y20622D01*
X33778Y20330D01*
G74*
D01*
G03X34070Y20622I178J470*
G01*
X33422Y20330D02*
X33422Y20622D01*
X33130Y20622D01*
G74*
D01*
G03X33422Y20330I470J178*
G01*
X33130Y20978D02*
X33422Y20978D01*
X33422Y21270D01*
G74*
D01*
G03X33130Y20978I178J470*
G01*
X33778Y21270D02*
X33778Y20978D01*
X34070Y20978D01*
G74*
D01*
G03X33778Y21270I470J178*
G01*
X33368Y20800D02*
G75*
D01*
G03X33368Y20800I232J0*
G01*
X35383Y17483D02*
X35383Y17183D01*
X35683Y17183D01*
G74*
D01*
G03X35383Y17483I483J183*
G01*
X36817Y16883D02*
X37117Y16883D01*
X37117Y17183D01*
G74*
D01*
G03X36817Y16883I183J483*
G01*
X35025Y17000D02*
G75*
D01*
G03X35025Y17000I175J0*
G01*
X37125Y16700D02*
G75*
D01*
G03X37125Y16700I175J0*
G01*
X37117Y16217D02*
X37117Y16517D01*
X36817Y16517D01*
G74*
D01*
G03X37117Y16217I483J183*
G01*
X34717Y15983D02*
X35017Y15983D01*
X35017Y16283D01*
G74*
D01*
G03X34717Y15983I183J483*
G01*
X35017Y16517D02*
X35017Y16817D01*
X34717Y16817D01*
G74*
D01*
G03X35017Y16517I483J183*
G01*
X35683Y16817D02*
X35383Y16817D01*
X35383Y16517D01*
G74*
D01*
G03X35683Y16817I183J483*
G01*
X35383Y16283D02*
X35383Y15983D01*
X35683Y15983D01*
G74*
D01*
G03X35383Y16283I483J183*
G01*
X35017Y15317D02*
X35017Y15617D01*
X34717Y15617D01*
G74*
D01*
G03X35017Y15317I483J183*
G01*
X35025Y15800D02*
G75*
D01*
G03X35025Y15800I175J0*
G01*
X35683Y15617D02*
X35383Y15617D01*
X35383Y15317D01*
G74*
D01*
G03X35683Y15617I183J483*
G01*
X41399Y12500D02*
X9800Y12500D01*
X9800Y28499D01*
X41399Y28499D01*
X41399Y12500D01*
X12150Y18600D02*
G75*
D01*
G03X12150Y18600I450J0*
G01*
X11643Y21152D02*
X14914Y17881D01*
X14914Y17341D01*
G75*
D01*
G03X14757Y16962I286J-341*
G01*
X14235Y16440D01*
G75*
D01*
G03X14151Y16237I201J-202*
G01*
X14151Y13380D01*
G75*
D01*
G03X14235Y13177I286J-1*
G01*
X14284Y13128D01*
X14244Y13128D01*
X11257Y16115D01*
X11257Y18309D01*
G75*
D01*
G03X11257Y18891I342J291*
G01*
X11257Y21309D01*
G75*
D01*
G03X11643Y21152I343J290*
G01*
X14926Y13536D02*
X14724Y13536D01*
X14724Y13755D01*
G74*
D01*
G03X14926Y13536I371J140*
G01*
X15701Y13867D02*
G74*
D01*
G03X15972Y13536I499J132*
G01*
X15474Y13536D01*
G74*
D01*
G03X15701Y13867I170J360*
G01*
X16700Y13870D02*
G74*
D01*
G03X16972Y13536I500J129*
G01*
X16428Y13536D01*
G74*
D01*
G03X16700Y13870I228J463*
G01*
X17700Y13870D02*
G74*
D01*
G03X17972Y13536I500J129*
G01*
X17428Y13536D01*
G74*
D01*
G03X17700Y13870I228J463*
G01*
X18972Y13536D02*
X18428Y13536D01*
G74*
D01*
G03X18700Y13870I228J463*
G01*
G74*
D01*
G03X18972Y13536I500J129*
G01*
X19700Y13870D02*
G74*
D01*
G03X19972Y13536I500J129*
G01*
X19428Y13536D01*
G74*
D01*
G03X19700Y13870I228J463*
G01*
X20700Y13870D02*
G74*
D01*
G03X20972Y13536I500J129*
G01*
X20428Y13536D01*
G74*
D01*
G03X20700Y13870I228J463*
G01*
X21700Y13870D02*
G74*
D01*
G03X21972Y13536I500J129*
G01*
X21428Y13536D01*
G74*
D01*
G03X21700Y13870I228J463*
G01*
X22972Y13536D02*
X22428Y13536D01*
G74*
D01*
G03X22700Y13870I228J463*
G01*
G74*
D01*
G03X22972Y13536I500J129*
G01*
X23700Y13870D02*
G74*
D01*
G03X23972Y13536I500J129*
G01*
X23428Y13536D01*
G74*
D01*
G03X23700Y13870I228J463*
G01*
X24428Y13536D02*
G74*
D01*
G03X24700Y13870I228J463*
G01*
G74*
D01*
G03X24972Y13536I500J129*
G01*
X24428Y13536D01*
X25972Y13536D02*
X25428Y13536D01*
G74*
D01*
G03X25700Y13870I228J463*
G01*
G74*
D01*
G03X25972Y13536I500J129*
G01*
X26972Y13536D02*
X26428Y13536D01*
G74*
D01*
G03X26700Y13870I228J463*
G01*
G74*
D01*
G03X26972Y13536I500J129*
G01*
X27700Y13870D02*
G74*
D01*
G03X27972Y13536I500J129*
G01*
X27428Y13536D01*
G74*
D01*
G03X27700Y13870I228J463*
G01*
X11950Y26300D02*
G74*
D01*
G03X11897Y26292I48J500*
G01*
X11911Y26306D01*
G74*
D01*
G03X11950Y26300I96J492*
G01*
G54D12*
X27200Y14000D02*
X27200Y17000D01*
X17200Y26000D02*
X17200Y23000D01*
X20200Y14000D02*
X20200Y17000D01*
X23200Y19000D02*
X23200Y23000D01*
X21200Y17000D02*
X23200Y19000D01*
X29682Y21400D02*
X23200Y21400D01*
X31000Y22718D02*
X29682Y21400D01*
X31000Y24400D02*
X31000Y22718D01*
X32700Y22700D02*
X31009Y22700D01*
X33600Y21800D02*
X32700Y22700D01*
X16200Y14000D02*
X16200Y17000D01*
X16200Y26000D02*
X16200Y23000D01*
X24200Y18650D02*
X24200Y17000D01*
X25150Y19600D02*
X24200Y18650D01*
X25150Y19600D02*
X31500Y19600D01*
X33400Y17700D02*
X31500Y19600D01*
X34900Y17700D02*
X33400Y17700D01*
X33400Y16800D01*
X35200Y18000D02*
X34900Y17700D01*
X17200Y14000D02*
X17200Y17000D01*
X19200Y26000D02*
X19200Y23000D01*
X22200Y23000D02*
X22200Y26000D01*
X26200Y23000D02*
X26200Y26000D01*
X27200Y23000D02*
X27200Y26000D01*
X23200Y15263D02*
X23200Y17000D01*
X23548Y14915D02*
X23200Y15263D01*
X23548Y14915D02*
X24289Y14915D01*
X24687Y15313D02*
X24289Y14915D01*
X24687Y17186D02*
X24687Y15313D01*
X25200Y17699D02*
X24687Y17186D01*
X26045Y18545D02*
X25200Y17700D01*
X31471Y18545D02*
X26045Y18545D01*
X31900Y18116D02*
X31471Y18545D01*
X31900Y18116D02*
X31900Y16400D01*
X33400Y14900D01*
X35200Y14800D02*
X33508Y14800D01*
X33408Y14900D01*
X33400Y14900D02*
X33400Y14883D01*
X28200Y23000D02*
X28200Y26000D01*
X28200Y14000D02*
X28200Y17000D01*
X25200Y14000D02*
X25200Y17000D01*
X26200Y14000D02*
X26200Y17000D01*
X14438Y16238D02*
X15200Y17000D01*
X15200Y18000D02*
X15200Y17000D01*
X14438Y13379D02*
X14438Y16238D01*
X11600Y21600D02*
X15200Y18000D01*
X14567Y13250D02*
X14438Y13379D01*
X29371Y13250D02*
X14567Y13250D01*
X29371Y13250D02*
X29500Y13379D01*
X29500Y16900D01*
X30200Y17600D01*
X31000Y17600D01*
X15200Y23000D02*
X15200Y26000D01*
X18200Y14000D02*
X18200Y17000D01*
X19200Y14000D02*
X19200Y17000D01*
X18200Y26000D02*
X18200Y23000D01*
X25200Y23000D02*
X25200Y26000D01*
X25100Y22100D02*
X24200Y23000D01*
X25100Y22100D02*
X28900Y22100D01*
X29600Y22800D02*
X28900Y22100D01*
X29600Y26800D02*
X29600Y22800D01*
X29700Y26900D02*
X39230Y26900D01*
X29700Y26900D02*
X29600Y26800D01*
X40518Y25612D02*
X39230Y26900D01*
X40518Y25612D02*
X40518Y22412D01*
X20200Y23000D02*
X20200Y26000D01*
X35400Y22412D02*
X36888Y23900D01*
X38071Y23900D01*
X38900Y24729D01*
X38900Y24900D01*
X38000Y25800D01*
X34400Y19800D02*
X33600Y19800D01*
X36700Y19800D02*
X34400Y19800D01*
X36700Y19800D02*
X38200Y18300D01*
X38200Y13579D02*
X38200Y18300D01*
X37462Y12842D02*
X38200Y13579D01*
X37300Y17700D02*
X38200Y17700D01*
X37462Y12842D02*
X14126Y12842D01*
X10971Y15996D01*
X10971Y25771D01*
X12000Y26800D02*
X10971Y25771D01*
X12000Y24800D02*
X12600Y24200D01*
X12600Y21600D02*
X12600Y24200D01*
X22200Y16650D02*
X22200Y17000D01*
X21750Y16200D02*
X22200Y16650D01*
X21750Y16200D02*
X21200Y16200D01*
X20700Y16700D01*
X20700Y22500D01*
X12700Y21700D02*
X20700Y21700D01*
X20635Y21765D01*
X20600Y21750D02*
X20600Y21700D01*
X21200Y23000D02*
X20700Y22500D01*
X12600Y21600D02*
X12700Y21700D01*
X14300Y26950D02*
X14300Y21700D01*
X14850Y27500D02*
X14300Y26950D01*
X14850Y27500D02*
X39354Y27500D01*
X41347Y25507D01*
X41347Y21829D01*
X40918Y21400D01*
X34429Y21400D01*
X34400Y21429D01*
X34400Y21000D02*
X34400Y24800D01*
X34200Y20800D02*
X34400Y21000D01*
X33800Y25400D02*
X34400Y24800D01*
X38000Y24800D01*
X33100Y20800D02*
X34200Y20800D01*
X31000Y25400D02*
X33800Y25400D01*
X32800Y20500D02*
X33100Y20800D01*
X32800Y19450D02*
X32800Y20500D01*
X33050Y19200D02*
X32800Y19450D01*
X36200Y19200D02*
X33050Y19200D01*
X36300Y19100D02*
X36300Y17000D01*
X36300Y19100D02*
X36200Y19200D01*
X36300Y17000D02*
X35200Y17000D01*
X37000Y17000D02*
X36200Y17000D01*
X35200Y15800D02*
X35200Y17000D01*
X37300Y16700D02*
X37000Y17000D01*
G54D13*
X33400Y16800D03*
X33400Y14883D03*
X12600Y18600D03*
X11600Y18600D03*
X12600Y21600D03*
X11600Y21600D03*
G54D14*
X38000Y24800D03*
X38000Y25800D03*
X31000Y24400D03*
X37300Y16700D03*
X35200Y15800D03*
X26200Y14000D03*
X20200Y14000D03*
X17200Y14000D03*
X16200Y14000D03*
X18200Y14000D03*
X19200Y14000D03*
X23200Y14000D03*
X21200Y14000D03*
X22200Y14000D03*
X25200Y14000D03*
X24200Y14000D03*
X28200Y14000D03*
X27200Y14000D03*
X35200Y17000D03*
X17200Y26000D03*
X23200Y26000D03*
X26200Y26000D03*
X27200Y26000D03*
X25200Y26000D03*
X24200Y26000D03*
X20200Y26000D03*
X22200Y26000D03*
X21200Y26000D03*
X18200Y26000D03*
X19200Y26000D03*
X15200Y26000D03*
X16200Y26000D03*
G54D15*
X31000Y25400D03*
X37300Y17700D03*
X35200Y14800D03*
X15200Y14000D03*
X35200Y18000D03*
X28200Y26000D03*
G54D16*
X30896Y25296D02*
X31104Y25296D01*
X31104Y25504D01*
X30896Y25504D01*
X30896Y25296D01*D02*
X37196Y17596D02*
X37404Y17596D01*
X37404Y17804D01*
X37196Y17804D01*
X37196Y17596D01*D02*
X35096Y14696D02*
X35304Y14696D01*
X35304Y14904D01*
X35096Y14904D01*
X35096Y14696D01*D02*
X15096Y13896D02*
X15304Y13896D01*
X15304Y14104D01*
X15096Y14104D01*
X15096Y13896D01*D02*
X35096Y17896D02*
X35304Y17896D01*
X35304Y18104D01*
X35096Y18104D01*
X35096Y17896D01*D02*
X28096Y25896D02*
X28304Y25896D01*
X28304Y26104D01*
X28096Y26104D01*
X28096Y25896D01*D02*
G54D17*
X15200Y23000D03*
X16200Y17000D03*
X17200Y17000D03*
X18200Y17000D03*
X20200Y17000D03*
X19200Y17000D03*
X21200Y17000D03*
X23200Y17000D03*
X22200Y17000D03*
X24200Y17000D03*
X25200Y17000D03*
X26200Y17000D03*
X27200Y17000D03*
X28200Y17000D03*
X21200Y23000D03*
X16200Y23000D03*
X17200Y23000D03*
X18200Y23000D03*
X20200Y23000D03*
X19200Y23000D03*
X23200Y23000D03*
X22200Y23000D03*
X24200Y23000D03*
X25200Y23000D03*
X26200Y23000D03*
X27200Y23000D03*
X28200Y23000D03*
X15200Y17000D03*
G54D18*
X33600Y20800D03*
X33600Y21800D03*
X12000Y26800D03*
X12000Y25800D03*
X12000Y24800D03*
X12000Y23800D03*
G54D19*
X33600Y19800D03*
G54D20*
X31000Y22718D03*
X31000Y17600D03*
X35400Y22412D03*
X40518Y22412D03*

M02*
