M48
INCH,TZ
VER,1
FMAT,2
DETECT,ON
ATC,ON
T1C0.0350
T2C0.0392
T3C0.0465
T4C0.0354
%
T1
X33400Y16800
Y14883
X12600Y18600
X11600
X12600Y21600
X11600
X38000Y24800
Y25800
X31000Y24400
X37300Y16700
X35200Y15800
X26200Y14000
X20200
X17200
X16200
X18200
X19200
X23200
X21200
X22200
X25200
X24200
X28200
X27200
X35200Y17000
X17200Y26000
X23200
X26200
X27200
X25200
X24200
X20200
X22200
X21200
X18200
X19200
X15200
X16200
X15200Y23000
X16200Y17000
X17200
X18200
X20200
X19200
X21200
X23200
X22200
X24200
X25200
X26200
X27200
X28200
X21200Y23000
X16200
X17200
X18200
X20200
X19200
X23200
X22200
X24200
X25200
X26200
X27200
X28200
X15200Y17000
T2
X31000Y25400
X37300Y17700
X35200Y14800
X15200Y14000
X35200Y18000
X28200Y26000
T3
X33600Y20800
Y21800
Y19800
X12000Y26800
Y25800
Y24800
Y23800
T4
X31000Y22718
Y17600
X35400Y22412
X40518
M30
